<svg xmlns="http://www.w3.org/2000/svg" viewBox="0 0 238.11 153.07">
<g font-family="Iowan Old Style, Palatino Linotype, Palatino, Georgia, Cambria, serif">
<text x="4" y="11.21" font-size="9.24" fill="#002147" font-weight="bold">La dix-septième épidémie, bulletin par bulletin</text>
<text x="4" y="22.01" font-size="6.79" fill="#6F6B62">Cas confirmés et décès cumulés, du 15 mai au 12 août 2026</text>
<text x="4" y="126.22" font-size="5.92" fill="#6F6B62">Source : OMS, les dix bulletins d’épidémie de la série, 2026-DON602 du 16 mai</text>
<text x="4" y="133.09" font-size="5.92" fill="#6F6B62">2026 à 2026-DON615 du 14 août 2026. Chaque ligne est citée du bulletin qui la</text>
<text x="4" y="139.95" font-size="5.92" fill="#6F6B62">porte ; aucune n’est calculée à partir d’une autre.</text>
<text x="230.11" y="149.07" font-size="5.45" fill="#6F6B62" text-anchor="end">© 2026 James Wabenga Yango</text>
<rect x="4" y="35.58" width="7.5" height="7.5" fill="#8C2F27"/>
<text x="14.5" y="42.11" font-size="8.17" fill="#22201C">Cas confirmés</text>
<rect x="79.88" y="35.58" width="7.5" height="7.5" fill="#002147"/>
<text x="90.38" y="42.11" font-size="8.17" fill="#22201C">Décès</text>
<line x1="83.3" y1="48.07" x2="83.3" y2="83.43" stroke="#E3DFD4" stroke-width="0.32"/>
<text x="83.3" y="92.8" font-size="8.17" fill="#22201C" text-anchor="middle">juin 2026</text>
<line x1="140.91" y1="48.07" x2="140.91" y2="83.43" stroke="#E3DFD4" stroke-width="0.32"/>
<text x="140.91" y="92.8" font-size="8.17" fill="#22201C" text-anchor="middle">juil. 2026</text>
<line x1="200.44" y1="48.07" x2="200.44" y2="83.43" stroke="#E3DFD4" stroke-width="0.32"/>
<text x="200.44" y="92.8" font-size="8.17" fill="#22201C" text-anchor="middle">août 2026</text>
<line x1="42.11" y1="81.85" x2="230.11" y2="81.85" stroke="#E3DFD4" stroke-width="0.32"/>
<text x="39.11" y="84.62" font-size="8.17" fill="#22201C" text-anchor="end">0</text>
<line x1="42.11" y1="74.95" x2="230.11" y2="74.95" stroke="#E3DFD4" stroke-width="0.32"/>
<text x="39.11" y="77.73" font-size="8.17" fill="#22201C" text-anchor="end">1 000</text>
<line x1="42.11" y1="68.05" x2="230.11" y2="68.05" stroke="#E3DFD4" stroke-width="0.32"/>
<text x="39.11" y="70.83" font-size="8.17" fill="#22201C" text-anchor="end">2 000</text>
<line x1="42.11" y1="61.16" x2="230.11" y2="61.16" stroke="#E3DFD4" stroke-width="0.32"/>
<text x="39.11" y="63.94" font-size="8.17" fill="#22201C" text-anchor="end">3 000</text>
<line x1="42.11" y1="54.26" x2="230.11" y2="54.26" stroke="#E3DFD4" stroke-width="0.32"/>
<text x="39.11" y="57.04" font-size="8.17" fill="#22201C" text-anchor="end">4 000</text>
<text x="136.11" y="108.42" font-size="8.36" fill="#6F6B62" text-anchor="middle">Date d’arrêt des chiffres</text>
<text x="10.52" y="65.75" font-size="8.36" fill="#6F6B62" text-anchor="middle" transform="rotate(-90 10.52 65.75)">Personnes</text>
<polyline points="62.18,81.27 73.7,80.98 92.9,78.29 100.58,77.18 114.03,75.67 140.91,71.78 167.8,67.2 196.6,56.99 221.57,49.68" fill="none" stroke="#8C2F27" stroke-width="0.65" stroke-linejoin="round" stroke-linecap="round"/>
<polyline points="50.66,81.82 62.18,81.78 73.7,81.73 92.9,81.22 100.58,80.91 114.03,80.25 140.91,78.73 167.8,76.14 196.6,70.9 221.57,66.79" fill="none" stroke="#002147" stroke-width="0.65" stroke-linejoin="round" stroke-linecap="round"/>
</g>
</svg>
