<svg xmlns="http://www.w3.org/2000/svg" viewBox="0 0 340.16 243.78">
<g font-family="Iowan Old Style, Palatino Linotype, Palatino, Georgia, Cambria, serif">
<text x="4" y="13.48" font-size="12.16" fill="#002147" font-weight="bold">Dépenses publiques : une série, cinq filtres</text>
<text x="4" y="27.07" font-size="8.93" fill="#6F6B62">Composante cyclique, en points de pourcentage. L’échelle verticale est libre</text>
<text x="4" y="37.43" font-size="8.93" fill="#6F6B62">dans chaque panneau : ce qui se lit ici est la date des retournements, non</text>
<text x="4" y="47.79" font-size="8.93" fill="#6F6B62">l’ampleur de l’écart.</text>
<text x="4" y="227.78" font-size="7.79" fill="#6F6B62">Banque centrale du Congo, Banque mondiale, FMI ; calculs de l’auteur.</text>
<text x="332.16" y="239.78" font-size="7.17" fill="#6F6B62" text-anchor="end">© 2026 James Wabenga Yango</text>
<text x="4" y="65.15" font-size="5.08" fill="#002147">Hodrick et Prescott, λ = 14400</text>
<text x="4" y="95.18" font-size="5.08" fill="#002147">Régression de Hamilton, h = 24, p = 12</text>
<text x="4" y="125.21" font-size="5.08" fill="#002147">Passe-bande de Baxter et King, 18-96 mois</text>
<text x="4" y="155.25" font-size="5.08" fill="#002147">Passe-bande de Christiano et Fitzgerald, 18-96 mois</text>
<text x="4" y="185.28" font-size="5.08" fill="#002147">Différence première</text>
<rect x="87.36" y="68.94" width="26.62" height="15.46" fill="#22201C" fill-opacity="0.055"/>
<rect x="183.06" y="68.94" width="16.02" height="15.46" fill="#22201C" fill-opacity="0.055"/>
<rect x="252.21" y="68.94" width="21.32" height="15.46" fill="#22201C" fill-opacity="0.055"/>
<line x1="30.68" y1="68.94" x2="30.68" y2="84.39" stroke="#E3DFD4" stroke-width="0.32"/>
<line x1="51.94" y1="68.94" x2="51.94" y2="84.39" stroke="#E3DFD4" stroke-width="0.32"/>
<line x1="73.2" y1="68.94" x2="73.2" y2="84.39" stroke="#E3DFD4" stroke-width="0.32"/>
<line x1="94.46" y1="68.94" x2="94.46" y2="84.39" stroke="#E3DFD4" stroke-width="0.32"/>
<line x1="115.78" y1="68.94" x2="115.78" y2="84.39" stroke="#E3DFD4" stroke-width="0.32"/>
<line x1="137.04" y1="68.94" x2="137.04" y2="84.39" stroke="#E3DFD4" stroke-width="0.32"/>
<line x1="158.31" y1="68.94" x2="158.31" y2="84.39" stroke="#E3DFD4" stroke-width="0.32"/>
<line x1="179.57" y1="68.94" x2="179.57" y2="84.39" stroke="#E3DFD4" stroke-width="0.32"/>
<line x1="200.89" y1="68.94" x2="200.89" y2="84.39" stroke="#E3DFD4" stroke-width="0.32"/>
<line x1="222.15" y1="68.94" x2="222.15" y2="84.39" stroke="#E3DFD4" stroke-width="0.32"/>
<line x1="243.41" y1="68.94" x2="243.41" y2="84.39" stroke="#E3DFD4" stroke-width="0.32"/>
<line x1="264.68" y1="68.94" x2="264.68" y2="84.39" stroke="#E3DFD4" stroke-width="0.32"/>
<line x1="286" y1="68.94" x2="286" y2="84.39" stroke="#E3DFD4" stroke-width="0.32"/>
<line x1="307.26" y1="68.94" x2="307.26" y2="84.39" stroke="#E3DFD4" stroke-width="0.32"/>
<line x1="16.32" y1="82.83" x2="332.16" y2="82.83" stroke="#E3DFD4" stroke-width="0.32"/>
<text x="13.32" y="84.39" font-size="4.59" fill="#22201C" text-anchor="end">-0,5</text>
<line x1="16.32" y1="76.64" x2="332.16" y2="76.64" stroke="#E3DFD4" stroke-width="0.32"/>
<text x="13.32" y="78.2" font-size="4.59" fill="#22201C" text-anchor="end">0</text>
<line x1="16.32" y1="70.45" x2="332.16" y2="70.45" stroke="#E3DFD4" stroke-width="0.32"/>
<text x="13.32" y="72.01" font-size="4.59" fill="#22201C" text-anchor="end">0,5</text>
<line x1="16.32" y1="76.64" x2="332.16" y2="76.64" stroke="#6F6B62" stroke-width="0.36"/>
<polygon points="30.68,76.64 30.68,77.46 32.48,77.48 34.11,77.49 35.92,77.51 37.67,77.53 39.47,77.54 41.22,77.56 43.03,77.57 44.83,77.59 46.58,77.6 48.39,77.6 50.13,77.61 51.94,77.61 53.74,77.6 55.38,77.59 57.18,77.58 58.93,77.55 60.73,77.52 62.48,77.48 64.29,76.9 66.09,76.31 67.84,75.72 69.65,75.11 71.39,74.48 73.2,73.84 75.01,73.16 76.64,72.53 78.44,71.83 80.19,71.13 82,70.38 83.74,69.64 85.55,70.44 87.36,71.22 89.1,71.95 90.91,72.72 92.66,73.43 94.46,74.18 96.27,74.91 97.96,75.6 99.76,76.33 101.51,77.05 103.32,77.82 105.06,78.57 106.87,78.83 108.68,79.13 110.42,79.43 112.23,79.77 113.98,80.14 115.78,80.55 117.59,80.99 119.22,81.42 121.03,81.93 122.77,82.47 124.58,83.07 126.33,83.69 128.13,82.79 129.94,81.94 131.69,81.16 133.49,80.38 135.24,79.67 137.04,78.97 138.85,78.3 140.48,77.76 142.29,77.15 144.04,76.6 145.84,76.05 147.59,75.55 149.39,75.57 151.2,75.59 152.95,75.66 154.75,75.72 156.5,75.8 158.31,75.89 160.11,75.97 161.74,76.13 163.55,76.23 165.3,76.36 167.1,76.45 168.85,76.58 170.66,76.16 172.46,75.74 174.21,75.34 176.02,74.91 177.76,74.49 179.57,74.04 181.37,73.58 183.06,73.16 184.87,72.68 186.62,72.21 188.42,71.69 190.17,71.19 191.98,72.21 193.78,73.23 195.53,74.22 197.34,75.21 199.08,76.19 200.89,77.16 202.7,78.14 204.33,79.05 206.13,80.01 207.88,80.95 209.69,81.92 211.43,82.87 213.24,82.25 215.04,81.63 216.79,81.06 218.6,80.44 220.35,79.86 222.15,79.24 223.96,78.61 225.59,78.08 227.39,77.44 229.14,76.82 230.95,76.15 232.7,75.51 234.5,75.35 236.31,75.15 238.05,74.96 239.86,74.73 241.61,74.48 243.41,74.2 245.22,73.88 246.85,73.6 248.66,73.24 250.4,72.86 252.21,72.42 253.96,71.98 255.76,72.53 257.57,73.07 259.32,73.55 261.12,74.01 262.87,74.43 264.68,74.84 266.48,75.24 268.17,75.56 269.98,75.9 271.72,76.21 273.53,76.5 275.28,76.77 277.08,77.03 278.89,77.29 280.64,77.51 282.44,77.74 284.19,77.95 286,78.16 287.8,78.38 289.43,78.53 291.24,78.72 292.99,78.9 294.79,79.11 296.54,79.29 298.35,78.96 300.15,78.63 301.9,78.31 303.7,77.98 305.45,77.66 307.26,77.33 309.06,77.01 310.69,76.69 312.5,76.37 314.25,76.05 316.05,75.73 317.8,75.41 317.8,76.64" fill="#002147" stroke="none" fill-opacity="0.16"/>
<polyline points="30.68,77.46 32.48,77.48 34.11,77.49 35.92,77.51 37.67,77.53 39.47,77.54 41.22,77.56 43.03,77.57 44.83,77.59 46.58,77.6 48.39,77.6 50.13,77.61 51.94,77.61 53.74,77.6 55.38,77.59 57.18,77.58 58.93,77.55 60.73,77.52 62.48,77.48 64.29,76.9 66.09,76.31 67.84,75.72 69.65,75.11 71.39,74.48 73.2,73.84 75.01,73.16 76.64,72.53 78.44,71.83 80.19,71.13 82,70.38 83.74,69.64 85.55,70.44 87.36,71.22 89.1,71.95 90.91,72.72 92.66,73.43 94.46,74.18 96.27,74.91 97.96,75.6 99.76,76.33 101.51,77.05 103.32,77.82 105.06,78.57 106.87,78.83 108.68,79.13 110.42,79.43 112.23,79.77 113.98,80.14 115.78,80.55 117.59,80.99 119.22,81.42 121.03,81.93 122.77,82.47 124.58,83.07 126.33,83.69 128.13,82.79 129.94,81.94 131.69,81.16 133.49,80.38 135.24,79.67 137.04,78.97 138.85,78.3 140.48,77.76 142.29,77.15 144.04,76.6 145.84,76.05 147.59,75.55 149.39,75.57 151.2,75.59 152.95,75.66 154.75,75.72 156.5,75.8 158.31,75.89 160.11,75.97 161.74,76.13 163.55,76.23 165.3,76.36 167.1,76.45 168.85,76.58 170.66,76.16 172.46,75.74 174.21,75.34 176.02,74.91 177.76,74.49 179.57,74.04 181.37,73.58 183.06,73.16 184.87,72.68 186.62,72.21 188.42,71.69 190.17,71.19 191.98,72.21 193.78,73.23 195.53,74.22 197.34,75.21 199.08,76.19 200.89,77.16 202.7,78.14 204.33,79.05 206.13,80.01 207.88,80.95 209.69,81.92 211.43,82.87 213.24,82.25 215.04,81.63 216.79,81.06 218.6,80.44 220.35,79.86 222.15,79.24 223.96,78.61 225.59,78.08 227.39,77.44 229.14,76.82 230.95,76.15 232.7,75.51 234.5,75.35 236.31,75.15 238.05,74.96 239.86,74.73 241.61,74.48 243.41,74.2 245.22,73.88 246.85,73.6 248.66,73.24 250.4,72.86 252.21,72.42 253.96,71.98 255.76,72.53 257.57,73.07 259.32,73.55 261.12,74.01 262.87,74.43 264.68,74.84 266.48,75.24 268.17,75.56 269.98,75.9 271.72,76.21 273.53,76.5 275.28,76.77 277.08,77.03 278.89,77.29 280.64,77.51 282.44,77.74 284.19,77.95 286,78.16 287.8,78.38 289.43,78.53 291.24,78.72 292.99,78.9 294.79,79.11 296.54,79.29 298.35,78.96 300.15,78.63 301.9,78.31 303.7,77.98 305.45,77.66 307.26,77.33 309.06,77.01 310.69,76.69 312.5,76.37 314.25,76.05 316.05,75.73 317.8,75.41" fill="none" stroke="#002147" stroke-width="0.6" stroke-linejoin="round" stroke-linecap="round"/>
<rect x="87.36" y="98.97" width="26.62" height="15.46" fill="#22201C" fill-opacity="0.055"/>
<rect x="183.06" y="98.97" width="16.02" height="15.46" fill="#22201C" fill-opacity="0.055"/>
<rect x="252.21" y="98.97" width="21.32" height="15.46" fill="#22201C" fill-opacity="0.055"/>
<line x1="30.68" y1="98.97" x2="30.68" y2="114.43" stroke="#E3DFD4" stroke-width="0.32"/>
<line x1="51.94" y1="98.97" x2="51.94" y2="114.43" stroke="#E3DFD4" stroke-width="0.32"/>
<line x1="73.2" y1="98.97" x2="73.2" y2="114.43" stroke="#E3DFD4" stroke-width="0.32"/>
<line x1="94.46" y1="98.97" x2="94.46" y2="114.43" stroke="#E3DFD4" stroke-width="0.32"/>
<line x1="115.78" y1="98.97" x2="115.78" y2="114.43" stroke="#E3DFD4" stroke-width="0.32"/>
<line x1="137.04" y1="98.97" x2="137.04" y2="114.43" stroke="#E3DFD4" stroke-width="0.32"/>
<line x1="158.31" y1="98.97" x2="158.31" y2="114.43" stroke="#E3DFD4" stroke-width="0.32"/>
<line x1="179.57" y1="98.97" x2="179.57" y2="114.43" stroke="#E3DFD4" stroke-width="0.32"/>
<line x1="200.89" y1="98.97" x2="200.89" y2="114.43" stroke="#E3DFD4" stroke-width="0.32"/>
<line x1="222.15" y1="98.97" x2="222.15" y2="114.43" stroke="#E3DFD4" stroke-width="0.32"/>
<line x1="243.41" y1="98.97" x2="243.41" y2="114.43" stroke="#E3DFD4" stroke-width="0.32"/>
<line x1="264.68" y1="98.97" x2="264.68" y2="114.43" stroke="#E3DFD4" stroke-width="0.32"/>
<line x1="286" y1="98.97" x2="286" y2="114.43" stroke="#E3DFD4" stroke-width="0.32"/>
<line x1="307.26" y1="98.97" x2="307.26" y2="114.43" stroke="#E3DFD4" stroke-width="0.32"/>
<line x1="16.32" y1="113.99" x2="332.16" y2="113.99" stroke="#E3DFD4" stroke-width="0.32"/>
<text x="13.32" y="115.55" font-size="4.59" fill="#22201C" text-anchor="end">-2</text>
<line x1="16.32" y1="105.88" x2="332.16" y2="105.88" stroke="#E3DFD4" stroke-width="0.32"/>
<text x="13.32" y="107.44" font-size="4.59" fill="#22201C" text-anchor="end">0</text>
<line x1="16.32" y1="105.88" x2="332.16" y2="105.88" stroke="#6F6B62" stroke-width="0.36"/>
<polygon points="92.66,105.88 92.66,107.46 94.46,107.8 96.27,108.14 97.96,108.46 99.76,108.81 101.51,109.14 103.32,109.48 105.06,109.81 106.87,111.13 108.68,111.35 110.42,111.54 112.23,111.76 113.98,112.04 115.78,112.18 117.59,112.44 119.22,112.55 121.03,112.83 122.77,113.04 124.58,113.51 126.33,113.72 128.13,110.08 129.94,109.78 131.69,109.38 133.49,109 135.24,108.53 137.04,108.3 138.85,107.92 140.48,107.54 142.29,107.21 144.04,106.8 145.84,105.77 147.59,105.32 149.39,106 151.2,105.62 152.95,105.37 154.75,104.97 156.5,104.69 158.31,104.28 160.11,103.93 161.74,103.78 163.55,103.28 165.3,103.02 167.1,102.79 168.85,102.58 170.66,105.54 172.46,105.17 174.21,104.89 176.02,104.58 177.76,104.38 179.57,103.92 181.37,103.65 183.06,103.28 184.87,103.04 186.62,102.75 188.42,103.09 190.17,102.87 191.98,102.2 193.78,102.57 195.53,102.82 197.34,103.23 199.08,103.5 200.89,103.9 202.7,104.27 204.33,104.42 206.13,104.92 207.88,105.18 209.69,105.41 211.43,105.62 213.24,106.59 215.04,106.34 216.79,106.15 218.6,106.02 220.35,105.82 222.15,105.62 223.96,105.42 225.59,105.21 227.39,105.08 229.14,104.87 230.95,104.96 232.7,104.75 234.5,101.44 236.31,101.37 238.05,101.24 239.86,101.2 241.61,100.92 243.41,101.06 245.22,100.89 246.85,100.82 248.66,100.76 250.4,100.61 252.21,99.89 253.96,99.67 255.76,103.15 257.57,103.3 259.32,103.51 261.12,103.72 262.87,104.02 264.68,104.07 266.48,104.31 268.17,104.43 269.98,104.7 271.72,104.91 273.53,105.77 275.28,106.05 277.08,105.38 278.89,105.75 280.64,106 282.44,106.41 284.19,106.68 286,107.08 287.8,107.45 289.43,107.6 291.24,108.1 292.99,108.36 294.79,108.59 296.54,108.8 298.35,106.66 300.15,106.68 301.9,106.69 303.7,106.73 305.45,106.65 307.26,106.78 309.06,106.75 310.69,106.78 312.5,106.79 314.25,106.8 316.05,106.4 317.8,106.33 317.8,105.88" fill="#8C2F27" stroke="none" fill-opacity="0.16"/>
<polyline points="92.66,107.46 94.46,107.8 96.27,108.14 97.96,108.46 99.76,108.81 101.51,109.14 103.32,109.48 105.06,109.81 106.87,111.13 108.68,111.35 110.42,111.54 112.23,111.76 113.98,112.04 115.78,112.18 117.59,112.44 119.22,112.55 121.03,112.83 122.77,113.04 124.58,113.51 126.33,113.72 128.13,110.08 129.94,109.78 131.69,109.38 133.49,109 135.24,108.53 137.04,108.3 138.85,107.92 140.48,107.54 142.29,107.21 144.04,106.8 145.84,105.77 147.59,105.32 149.39,106 151.2,105.62 152.95,105.37 154.75,104.97 156.5,104.69 158.31,104.28 160.11,103.93 161.74,103.78 163.55,103.28 165.3,103.02 167.1,102.79 168.85,102.58 170.66,105.54 172.46,105.17 174.21,104.89 176.02,104.58 177.76,104.38 179.57,103.92 181.37,103.65 183.06,103.28 184.87,103.04 186.62,102.75 188.42,103.09 190.17,102.87 191.98,102.2 193.78,102.57 195.53,102.82 197.34,103.23 199.08,103.5 200.89,103.9 202.7,104.27 204.33,104.42 206.13,104.92 207.88,105.18 209.69,105.41 211.43,105.62 213.24,106.59 215.04,106.34 216.79,106.15 218.6,106.02 220.35,105.82 222.15,105.62 223.96,105.42 225.59,105.21 227.39,105.08 229.14,104.87 230.95,104.96 232.7,104.75 234.5,101.44 236.31,101.37 238.05,101.24 239.86,101.2 241.61,100.92 243.41,101.06 245.22,100.89 246.85,100.82 248.66,100.76 250.4,100.61 252.21,99.89 253.96,99.67 255.76,103.15 257.57,103.3 259.32,103.51 261.12,103.72 262.87,104.02 264.68,104.07 266.48,104.31 268.17,104.43 269.98,104.7 271.72,104.91 273.53,105.77 275.28,106.05 277.08,105.38 278.89,105.75 280.64,106 282.44,106.41 284.19,106.68 286,107.08 287.8,107.45 289.43,107.6 291.24,108.1 292.99,108.36 294.79,108.59 296.54,108.8 298.35,106.66 300.15,106.68 301.9,106.69 303.7,106.73 305.45,106.65 307.26,106.78 309.06,106.75 310.69,106.78 312.5,106.79 314.25,106.8 316.05,106.4 317.8,106.33" fill="none" stroke="#8C2F27" stroke-width="0.6" stroke-linejoin="round" stroke-linecap="round"/>
<rect x="87.36" y="129" width="26.62" height="15.46" fill="#22201C" fill-opacity="0.055"/>
<rect x="183.06" y="129" width="16.02" height="15.46" fill="#22201C" fill-opacity="0.055"/>
<rect x="252.21" y="129" width="21.32" height="15.46" fill="#22201C" fill-opacity="0.055"/>
<line x1="30.68" y1="129" x2="30.68" y2="144.46" stroke="#E3DFD4" stroke-width="0.32"/>
<line x1="51.94" y1="129" x2="51.94" y2="144.46" stroke="#E3DFD4" stroke-width="0.32"/>
<line x1="73.2" y1="129" x2="73.2" y2="144.46" stroke="#E3DFD4" stroke-width="0.32"/>
<line x1="94.46" y1="129" x2="94.46" y2="144.46" stroke="#E3DFD4" stroke-width="0.32"/>
<line x1="115.78" y1="129" x2="115.78" y2="144.46" stroke="#E3DFD4" stroke-width="0.32"/>
<line x1="137.04" y1="129" x2="137.04" y2="144.46" stroke="#E3DFD4" stroke-width="0.32"/>
<line x1="158.31" y1="129" x2="158.31" y2="144.46" stroke="#E3DFD4" stroke-width="0.32"/>
<line x1="179.57" y1="129" x2="179.57" y2="144.46" stroke="#E3DFD4" stroke-width="0.32"/>
<line x1="200.89" y1="129" x2="200.89" y2="144.46" stroke="#E3DFD4" stroke-width="0.32"/>
<line x1="222.15" y1="129" x2="222.15" y2="144.46" stroke="#E3DFD4" stroke-width="0.32"/>
<line x1="243.41" y1="129" x2="243.41" y2="144.46" stroke="#E3DFD4" stroke-width="0.32"/>
<line x1="264.68" y1="129" x2="264.68" y2="144.46" stroke="#E3DFD4" stroke-width="0.32"/>
<line x1="286" y1="129" x2="286" y2="144.46" stroke="#E3DFD4" stroke-width="0.32"/>
<line x1="307.26" y1="129" x2="307.26" y2="144.46" stroke="#E3DFD4" stroke-width="0.32"/>
<line x1="16.32" y1="140.72" x2="332.16" y2="140.72" stroke="#E3DFD4" stroke-width="0.32"/>
<text x="13.32" y="142.28" font-size="4.59" fill="#22201C" text-anchor="end">-0,5</text>
<line x1="16.32" y1="135.5" x2="332.16" y2="135.5" stroke="#E3DFD4" stroke-width="0.32"/>
<text x="13.32" y="137.06" font-size="4.59" fill="#22201C" text-anchor="end">0</text>
<line x1="16.32" y1="130.28" x2="332.16" y2="130.28" stroke="#E3DFD4" stroke-width="0.32"/>
<text x="13.32" y="131.84" font-size="4.59" fill="#22201C" text-anchor="end">0,5</text>
<line x1="16.32" y1="135.5" x2="332.16" y2="135.5" stroke="#6F6B62" stroke-width="0.36"/>
<polygon points="94.46,135.5 94.46,133.58 96.27,134.41 97.96,135.26 99.76,136.11 101.51,136.94 103.32,137.75 105.06,138.53 106.87,139.26 108.68,139.96 110.42,140.61 112.23,141.22 113.98,141.78 115.78,142.29 117.59,142.75 119.22,143.13 121.03,143.44 122.77,143.65 124.58,143.76 126.33,143.75 128.13,143.62 129.94,143.36 131.69,142.98 133.49,142.47 135.24,141.87 137.04,141.18 138.85,140.43 140.48,139.66 142.29,138.9 144.04,138.18 145.84,137.52 147.59,136.96 149.39,136.5 151.2,136.17 152.95,135.95 154.75,135.84 156.5,135.81 158.31,135.85 160.11,135.91 161.74,135.97 163.55,135.99 165.3,135.94 167.1,135.81 168.85,135.57 170.66,135.22 172.46,134.77 174.21,134.22 176.02,133.62 177.76,132.98 179.57,132.36 181.37,131.78 183.06,131.3 184.87,130.95 186.62,130.77 188.42,130.77 190.17,130.96 191.98,131.34 193.78,131.9 195.53,132.61 197.34,133.44 199.08,134.34 200.89,135.26 202.7,136.16 204.33,136.99 206.13,137.71 207.88,138.28 209.69,138.68 211.43,138.89 213.24,138.9 215.04,138.74 216.79,138.41 218.6,137.94 220.35,137.35 222.15,136.69 223.96,135.97 225.59,135.25 227.39,134.53 229.14,133.85 230.95,133.21 232.7,132.63 234.5,132.11 236.31,131.65 238.05,131.25 239.86,130.91 241.61,130.61 243.41,130.36 245.22,130.15 246.85,129.98 248.66,129.85 250.4,129.75 252.21,129.71 253.96,129.71 253.96,135.5" fill="#3F6B52" stroke="none" fill-opacity="0.16"/>
<polyline points="94.46,133.58 96.27,134.41 97.96,135.26 99.76,136.11 101.51,136.94 103.32,137.75 105.06,138.53 106.87,139.26 108.68,139.96 110.42,140.61 112.23,141.22 113.98,141.78 115.78,142.29 117.59,142.75 119.22,143.13 121.03,143.44 122.77,143.65 124.58,143.76 126.33,143.75 128.13,143.62 129.94,143.36 131.69,142.98 133.49,142.47 135.24,141.87 137.04,141.18 138.85,140.43 140.48,139.66 142.29,138.9 144.04,138.18 145.84,137.52 147.59,136.96 149.39,136.5 151.2,136.17 152.95,135.95 154.75,135.84 156.5,135.81 158.31,135.85 160.11,135.91 161.74,135.97 163.55,135.99 165.3,135.94 167.1,135.81 168.85,135.57 170.66,135.22 172.46,134.77 174.21,134.22 176.02,133.62 177.76,132.98 179.57,132.36 181.37,131.78 183.06,131.3 184.87,130.95 186.62,130.77 188.42,130.77 190.17,130.96 191.98,131.34 193.78,131.9 195.53,132.61 197.34,133.44 199.08,134.34 200.89,135.26 202.7,136.16 204.33,136.99 206.13,137.71 207.88,138.28 209.69,138.68 211.43,138.89 213.24,138.9 215.04,138.74 216.79,138.41 218.6,137.94 220.35,137.35 222.15,136.69 223.96,135.97 225.59,135.25 227.39,134.53 229.14,133.85 230.95,133.21 232.7,132.63 234.5,132.11 236.31,131.65 238.05,131.25 239.86,130.91 241.61,130.61 243.41,130.36 245.22,130.15 246.85,129.98 248.66,129.85 250.4,129.75 252.21,129.71 253.96,129.71" fill="none" stroke="#3F6B52" stroke-width="0.6" stroke-linejoin="round" stroke-linecap="round"/>
<rect x="87.36" y="159.04" width="26.62" height="15.46" fill="#22201C" fill-opacity="0.055"/>
<rect x="183.06" y="159.04" width="16.02" height="15.46" fill="#22201C" fill-opacity="0.055"/>
<rect x="252.21" y="159.04" width="21.32" height="15.46" fill="#22201C" fill-opacity="0.055"/>
<line x1="30.68" y1="159.04" x2="30.68" y2="174.49" stroke="#E3DFD4" stroke-width="0.32"/>
<line x1="51.94" y1="159.04" x2="51.94" y2="174.49" stroke="#E3DFD4" stroke-width="0.32"/>
<line x1="73.2" y1="159.04" x2="73.2" y2="174.49" stroke="#E3DFD4" stroke-width="0.32"/>
<line x1="94.46" y1="159.04" x2="94.46" y2="174.49" stroke="#E3DFD4" stroke-width="0.32"/>
<line x1="115.78" y1="159.04" x2="115.78" y2="174.49" stroke="#E3DFD4" stroke-width="0.32"/>
<line x1="137.04" y1="159.04" x2="137.04" y2="174.49" stroke="#E3DFD4" stroke-width="0.32"/>
<line x1="158.31" y1="159.04" x2="158.31" y2="174.49" stroke="#E3DFD4" stroke-width="0.32"/>
<line x1="179.57" y1="159.04" x2="179.57" y2="174.49" stroke="#E3DFD4" stroke-width="0.32"/>
<line x1="200.89" y1="159.04" x2="200.89" y2="174.49" stroke="#E3DFD4" stroke-width="0.32"/>
<line x1="222.15" y1="159.04" x2="222.15" y2="174.49" stroke="#E3DFD4" stroke-width="0.32"/>
<line x1="243.41" y1="159.04" x2="243.41" y2="174.49" stroke="#E3DFD4" stroke-width="0.32"/>
<line x1="264.68" y1="159.04" x2="264.68" y2="174.49" stroke="#E3DFD4" stroke-width="0.32"/>
<line x1="286" y1="159.04" x2="286" y2="174.49" stroke="#E3DFD4" stroke-width="0.32"/>
<line x1="307.26" y1="159.04" x2="307.26" y2="174.49" stroke="#E3DFD4" stroke-width="0.32"/>
<line x1="16.32" y1="172.85" x2="332.16" y2="172.85" stroke="#E3DFD4" stroke-width="0.32"/>
<text x="13.32" y="174.41" font-size="4.59" fill="#22201C" text-anchor="end">-0,5</text>
<line x1="16.32" y1="167.03" x2="332.16" y2="167.03" stroke="#E3DFD4" stroke-width="0.32"/>
<text x="13.32" y="168.59" font-size="4.59" fill="#22201C" text-anchor="end">0</text>
<line x1="16.32" y1="161.2" x2="332.16" y2="161.2" stroke="#E3DFD4" stroke-width="0.32"/>
<text x="13.32" y="162.76" font-size="4.59" fill="#22201C" text-anchor="end">0,5</text>
<line x1="16.32" y1="167.03" x2="332.16" y2="167.03" stroke="#6F6B62" stroke-width="0.36"/>
<polygon points="30.68,167.03 30.68,168.24 32.48,168.13 34.11,168 35.92,167.87 37.67,167.75 39.47,167.64 41.22,167.55 43.03,167.48 44.83,167.43 46.58,167.41 48.39,167.4 50.13,167.39 51.94,167.37 53.74,167.32 55.38,167.23 57.18,167.07 58.93,166.83 60.73,166.5 62.48,166.07 64.29,165.55 66.09,164.94 67.84,164.25 69.65,163.52 71.39,162.77 73.2,162.03 75.01,161.34 76.64,160.74 78.44,160.25 80.19,159.91 82,159.74 83.74,159.75 85.55,159.94 87.36,160.3 89.1,160.83 90.91,161.5 92.66,162.29 94.46,163.15 96.27,164.07 97.96,165.02 99.76,165.96 101.51,166.87 103.32,167.74 105.06,168.56 106.87,169.32 108.68,170.02 110.42,170.67 112.23,171.26 113.98,171.8 115.78,172.29 117.59,172.73 119.22,173.1 121.03,173.41 122.77,173.64 124.58,173.77 126.33,173.79 128.13,173.69 129.94,173.45 131.69,173.08 133.49,172.58 135.24,171.96 137.04,171.24 138.85,170.46 140.48,169.64 142.29,168.82 144.04,168.05 145.84,167.35 147.59,166.77 149.39,166.31 151.2,166 152.95,165.83 154.75,165.8 156.5,165.88 158.31,166.04 160.11,166.24 161.74,166.43 163.55,166.59 165.3,166.66 167.1,166.62 168.85,166.45 170.66,166.14 172.46,165.69 174.21,165.14 176.02,164.51 177.76,163.84 179.57,163.18 181.37,162.59 183.06,162.11 184.87,161.79 186.62,161.67 188.42,161.76 190.17,162.09 191.98,162.63 193.78,163.38 195.53,164.29 197.34,165.32 199.08,166.43 200.89,167.55 202.7,168.64 204.33,169.63 206.13,170.49 207.88,171.18 209.69,171.67 211.43,171.97 213.24,172.05 215.04,171.95 216.79,171.67 218.6,171.25 220.35,170.72 222.15,170.11 223.96,169.45 225.59,168.76 227.39,168.09 229.14,167.43 230.95,166.82 232.7,166.25 234.5,165.72 236.31,165.25 238.05,164.82 239.86,164.44 241.61,164.1 243.41,163.8 245.22,163.54 246.85,163.33 248.66,163.16 250.4,163.04 252.21,162.99 253.96,162.99 255.76,163.07 257.57,163.22 259.32,163.43 261.12,163.71 262.87,164.06 264.68,164.46 266.48,164.89 268.17,165.36 269.98,165.85 271.72,166.34 273.53,166.82 275.28,167.29 277.08,167.74 278.89,168.15 280.64,168.54 282.44,168.88 284.19,169.2 286,169.47 287.8,169.72 289.43,169.93 291.24,170.11 292.99,170.26 294.79,170.37 296.54,170.45 298.35,170.49 300.15,170.5 301.9,170.46 303.7,170.39 305.45,170.28 307.26,170.13 309.06,169.94 310.69,169.73 312.5,169.49 314.25,169.24 316.05,168.98 317.8,168.72 317.8,167.03" fill="#8A6A18" stroke="none" fill-opacity="0.16"/>
<polyline points="30.68,168.24 32.48,168.13 34.11,168 35.92,167.87 37.67,167.75 39.47,167.64 41.22,167.55 43.03,167.48 44.83,167.43 46.58,167.41 48.39,167.4 50.13,167.39 51.94,167.37 53.74,167.32 55.38,167.23 57.18,167.07 58.93,166.83 60.73,166.5 62.48,166.07 64.29,165.55 66.09,164.94 67.84,164.25 69.65,163.52 71.39,162.77 73.2,162.03 75.01,161.34 76.64,160.74 78.44,160.25 80.19,159.91 82,159.74 83.74,159.75 85.55,159.94 87.36,160.3 89.1,160.83 90.91,161.5 92.66,162.29 94.46,163.15 96.27,164.07 97.96,165.02 99.76,165.96 101.51,166.87 103.32,167.74 105.06,168.56 106.87,169.32 108.68,170.02 110.42,170.67 112.23,171.26 113.98,171.8 115.78,172.29 117.59,172.73 119.22,173.1 121.03,173.41 122.77,173.64 124.58,173.77 126.33,173.79 128.13,173.69 129.94,173.45 131.69,173.08 133.49,172.58 135.24,171.96 137.04,171.24 138.85,170.46 140.48,169.64 142.29,168.82 144.04,168.05 145.84,167.35 147.59,166.77 149.39,166.31 151.2,166 152.95,165.83 154.75,165.8 156.5,165.88 158.31,166.04 160.11,166.24 161.74,166.43 163.55,166.59 165.3,166.66 167.1,166.62 168.85,166.45 170.66,166.14 172.46,165.69 174.21,165.14 176.02,164.51 177.76,163.84 179.57,163.18 181.37,162.59 183.06,162.11 184.87,161.79 186.62,161.67 188.42,161.76 190.17,162.09 191.98,162.63 193.78,163.38 195.53,164.29 197.34,165.32 199.08,166.43 200.89,167.55 202.7,168.64 204.33,169.63 206.13,170.49 207.88,171.18 209.69,171.67 211.43,171.97 213.24,172.05 215.04,171.95 216.79,171.67 218.6,171.25 220.35,170.72 222.15,170.11 223.96,169.45 225.59,168.76 227.39,168.09 229.14,167.43 230.95,166.82 232.7,166.25 234.5,165.72 236.31,165.25 238.05,164.82 239.86,164.44 241.61,164.1 243.41,163.8 245.22,163.54 246.85,163.33 248.66,163.16 250.4,163.04 252.21,162.99 253.96,162.99 255.76,163.07 257.57,163.22 259.32,163.43 261.12,163.71 262.87,164.06 264.68,164.46 266.48,164.89 268.17,165.36 269.98,165.85 271.72,166.34 273.53,166.82 275.28,167.29 277.08,167.74 278.89,168.15 280.64,168.54 282.44,168.88 284.19,169.2 286,169.47 287.8,169.72 289.43,169.93 291.24,170.11 292.99,170.26 294.79,170.37 296.54,170.45 298.35,170.49 300.15,170.5 301.9,170.46 303.7,170.39 305.45,170.28 307.26,170.13 309.06,169.94 310.69,169.73 312.5,169.49 314.25,169.24 316.05,168.98 317.8,168.72" fill="none" stroke="#8A6A18" stroke-width="0.6" stroke-linejoin="round" stroke-linecap="round"/>
<rect x="87.36" y="189.07" width="26.62" height="15.46" fill="#22201C" fill-opacity="0.055"/>
<rect x="183.06" y="189.07" width="16.02" height="15.46" fill="#22201C" fill-opacity="0.055"/>
<rect x="252.21" y="189.07" width="21.32" height="15.46" fill="#22201C" fill-opacity="0.055"/>
<line x1="30.68" y1="189.07" x2="30.68" y2="204.53" stroke="#E3DFD4" stroke-width="0.32"/>
<text x="30.68" y="211.1" font-size="4.59" fill="#22201C" text-anchor="middle">2013</text>
<line x1="51.94" y1="189.07" x2="51.94" y2="204.53" stroke="#E3DFD4" stroke-width="0.32"/>
<text x="51.94" y="211.1" font-size="4.59" fill="#22201C" text-anchor="middle">2014</text>
<line x1="73.2" y1="189.07" x2="73.2" y2="204.53" stroke="#E3DFD4" stroke-width="0.32"/>
<text x="73.2" y="211.1" font-size="4.59" fill="#22201C" text-anchor="middle">2015</text>
<line x1="94.46" y1="189.07" x2="94.46" y2="204.53" stroke="#E3DFD4" stroke-width="0.32"/>
<text x="94.46" y="211.1" font-size="4.59" fill="#22201C" text-anchor="middle">2016</text>
<line x1="115.78" y1="189.07" x2="115.78" y2="204.53" stroke="#E3DFD4" stroke-width="0.32"/>
<text x="115.78" y="211.1" font-size="4.59" fill="#22201C" text-anchor="middle">2017</text>
<line x1="137.04" y1="189.07" x2="137.04" y2="204.53" stroke="#E3DFD4" stroke-width="0.32"/>
<text x="137.04" y="211.1" font-size="4.59" fill="#22201C" text-anchor="middle">2018</text>
<line x1="158.31" y1="189.07" x2="158.31" y2="204.53" stroke="#E3DFD4" stroke-width="0.32"/>
<text x="158.31" y="211.1" font-size="4.59" fill="#22201C" text-anchor="middle">2019</text>
<line x1="179.57" y1="189.07" x2="179.57" y2="204.53" stroke="#E3DFD4" stroke-width="0.32"/>
<text x="179.57" y="211.1" font-size="4.59" fill="#22201C" text-anchor="middle">2020</text>
<line x1="200.89" y1="189.07" x2="200.89" y2="204.53" stroke="#E3DFD4" stroke-width="0.32"/>
<text x="200.89" y="211.1" font-size="4.59" fill="#22201C" text-anchor="middle">2021</text>
<line x1="222.15" y1="189.07" x2="222.15" y2="204.53" stroke="#E3DFD4" stroke-width="0.32"/>
<text x="222.15" y="211.1" font-size="4.59" fill="#22201C" text-anchor="middle">2022</text>
<line x1="243.41" y1="189.07" x2="243.41" y2="204.53" stroke="#E3DFD4" stroke-width="0.32"/>
<text x="243.41" y="211.1" font-size="4.59" fill="#22201C" text-anchor="middle">2023</text>
<line x1="264.68" y1="189.07" x2="264.68" y2="204.53" stroke="#E3DFD4" stroke-width="0.32"/>
<text x="264.68" y="211.1" font-size="4.59" fill="#22201C" text-anchor="middle">2024</text>
<line x1="286" y1="189.07" x2="286" y2="204.53" stroke="#E3DFD4" stroke-width="0.32"/>
<text x="286" y="211.1" font-size="4.59" fill="#22201C" text-anchor="middle">2025</text>
<line x1="307.26" y1="189.07" x2="307.26" y2="204.53" stroke="#E3DFD4" stroke-width="0.32"/>
<text x="307.26" y="211.1" font-size="4.59" fill="#22201C" text-anchor="middle">2026</text>
<line x1="16.32" y1="200.93" x2="332.16" y2="200.93" stroke="#E3DFD4" stroke-width="0.32"/>
<text x="13.32" y="202.49" font-size="4.59" fill="#22201C" text-anchor="end">-0,05</text>
<line x1="16.32" y1="192.67" x2="332.16" y2="192.67" stroke="#E3DFD4" stroke-width="0.32"/>
<text x="13.32" y="194.22" font-size="4.59" fill="#22201C" text-anchor="end">0,05</text>
<line x1="16.32" y1="196.8" x2="332.16" y2="196.8" stroke="#6F6B62" stroke-width="0.36"/>
<polygon points="32.48,196.8 32.48,196.8 34.11,196.8 35.92,196.8 37.67,196.8 39.47,196.8 41.22,196.8 43.03,196.8 44.83,196.8 46.58,196.8 48.39,196.8 50.13,196.8 51.94,196.8 53.74,196.8 55.38,196.8 57.18,196.8 58.93,196.8 60.73,196.8 62.48,196.8 64.29,193.33 66.09,193.24 67.84,193.41 69.65,193.33 71.39,193.33 73.2,193.33 75.01,193.24 76.64,193.66 78.44,193.33 80.19,193.41 82,193.24 83.74,193.41 85.55,203.82 87.36,203.74 89.1,203.57 90.91,203.82 92.66,203.57 94.46,203.82 96.27,203.74 97.96,203.41 99.76,203.74 101.51,203.57 103.32,203.82 105.06,203.57 106.87,200.27 108.68,200.35 110.42,200.19 112.23,200.27 113.98,200.27 115.78,200.27 117.59,200.35 119.22,199.94 121.03,200.27 122.77,200.19 124.58,200.35 126.33,200.19 128.13,189.77 129.94,189.77 131.69,190.02 133.49,189.77 135.24,190.02 137.04,189.77 138.85,189.77 140.48,190.43 142.29,189.77 144.04,190.02 145.84,189.77 147.59,190.02 149.39,193.33 151.2,193.24 152.95,193.41 154.75,193.33 156.5,193.33 158.31,193.33 160.11,193.24 161.74,193.66 163.55,193.33 165.3,193.41 167.1,193.24 168.85,193.41 170.66,189.77 172.46,189.86 174.21,190.02 176.02,189.77 177.76,190.02 179.57,189.77 181.37,189.86 183.06,190.19 184.87,189.86 186.62,190.02 188.42,189.77 190.17,190.02 191.98,200.27 193.78,200.35 195.53,200.19 197.34,200.27 199.08,200.27 200.89,200.27 202.7,200.35 204.33,199.94 206.13,200.27 207.88,200.19 209.69,200.35 211.43,200.19 213.24,189.77 215.04,189.77 216.79,190.02 218.6,189.77 220.35,190.02 222.15,189.77 223.96,189.77 225.59,190.43 227.39,189.77 229.14,190.02 230.95,189.77 232.7,190.02 234.5,193.33 236.31,193.24 238.05,193.41 239.86,193.33 241.61,193.33 243.41,193.33 245.22,193.24 246.85,193.66 248.66,193.33 250.4,193.41 252.21,193.24 253.96,193.41 255.76,200.27 257.57,200.35 259.32,200.19 261.12,200.27 262.87,200.19 264.68,200.27 266.48,200.35 268.17,200.02 269.98,200.35 271.72,200.19 273.53,200.27 275.28,200.19 277.08,200.27 278.89,200.35 280.64,200.19 282.44,200.27 284.19,200.27 286,200.27 287.8,200.35 289.43,199.94 291.24,200.27 292.99,200.19 294.79,200.35 296.54,200.19 298.35,196.8 300.15,196.8 301.9,196.8 303.7,196.8 305.45,196.8 307.26,196.8 309.06,196.8 310.69,196.8 312.5,196.8 314.25,196.8 316.05,196.8 317.8,196.8 317.8,196.8" fill="#5B3A6B" stroke="none" fill-opacity="0.16"/>
<polyline points="32.48,196.8 34.11,196.8 35.92,196.8 37.67,196.8 39.47,196.8 41.22,196.8 43.03,196.8 44.83,196.8 46.58,196.8 48.39,196.8 50.13,196.8 51.94,196.8 53.74,196.8 55.38,196.8 57.18,196.8 58.93,196.8 60.73,196.8 62.48,196.8 64.29,193.33 66.09,193.24 67.84,193.41 69.65,193.33 71.39,193.33 73.2,193.33 75.01,193.24 76.64,193.66 78.44,193.33 80.19,193.41 82,193.24 83.74,193.41 85.55,203.82 87.36,203.74 89.1,203.57 90.91,203.82 92.66,203.57 94.46,203.82 96.27,203.74 97.96,203.41 99.76,203.74 101.51,203.57 103.32,203.82 105.06,203.57 106.87,200.27 108.68,200.35 110.42,200.19 112.23,200.27 113.98,200.27 115.78,200.27 117.59,200.35 119.22,199.94 121.03,200.27 122.77,200.19 124.58,200.35 126.33,200.19 128.13,189.77 129.94,189.77 131.69,190.02 133.49,189.77 135.24,190.02 137.04,189.77 138.85,189.77 140.48,190.43 142.29,189.77 144.04,190.02 145.84,189.77 147.59,190.02 149.39,193.33 151.2,193.24 152.95,193.41 154.75,193.33 156.5,193.33 158.31,193.33 160.11,193.24 161.74,193.66 163.55,193.33 165.3,193.41 167.1,193.24 168.85,193.41 170.66,189.77 172.46,189.86 174.21,190.02 176.02,189.77 177.76,190.02 179.57,189.77 181.37,189.86 183.06,190.19 184.87,189.86 186.62,190.02 188.42,189.77 190.17,190.02 191.98,200.27 193.78,200.35 195.53,200.19 197.34,200.27 199.08,200.27 200.89,200.27 202.7,200.35 204.33,199.94 206.13,200.27 207.88,200.19 209.69,200.35 211.43,200.19 213.24,189.77 215.04,189.77 216.79,190.02 218.6,189.77 220.35,190.02 222.15,189.77 223.96,189.77 225.59,190.43 227.39,189.77 229.14,190.02 230.95,189.77 232.7,190.02 234.5,193.33 236.31,193.24 238.05,193.41 239.86,193.33 241.61,193.33 243.41,193.33 245.22,193.24 246.85,193.66 248.66,193.33 250.4,193.41 252.21,193.24 253.96,193.41 255.76,200.27 257.57,200.35 259.32,200.19 261.12,200.27 262.87,200.19 264.68,200.27 266.48,200.35 268.17,200.02 269.98,200.35 271.72,200.19 273.53,200.27 275.28,200.19 277.08,200.27 278.89,200.35 280.64,200.19 282.44,200.27 284.19,200.27 286,200.27 287.8,200.35 289.43,199.94 291.24,200.27 292.99,200.19 294.79,200.35 296.54,200.19 298.35,196.8 300.15,196.8 301.9,196.8 303.7,196.8 305.45,196.8 307.26,196.8 309.06,196.8 310.69,196.8 312.5,196.8 314.25,196.8 316.05,196.8 317.8,196.8" fill="none" stroke="#5B3A6B" stroke-width="0.6" stroke-linejoin="round" stroke-linecap="round"/>
</g>
</svg>
