<svg xmlns="http://www.w3.org/2000/svg" viewBox="0 0 340.16 243.78">
<g font-family="Iowan Old Style, Palatino Linotype, Palatino, Georgia, Cambria, serif">
<text x="4" y="13.48" font-size="12.16" fill="#002147" font-weight="bold">Taux des fonds fédéraux américains : une série, cinq</text>
<text x="4" y="27.59" font-size="12.16" fill="#002147" font-weight="bold">filtres</text>
<text x="4" y="41.18" font-size="8.93" fill="#6F6B62">Composante cyclique, en points de pourcentage. L’échelle verticale est libre</text>
<text x="4" y="51.54" font-size="8.93" fill="#6F6B62">dans chaque panneau : ce qui se lit ici est la date des retournements, non</text>
<text x="4" y="61.89" font-size="8.93" fill="#6F6B62">l’ampleur de l’écart.</text>
<text x="4" y="227.78" font-size="7.79" fill="#6F6B62">Banque centrale du Congo, Banque mondiale, FMI ; calculs de l’auteur.</text>
<text x="332.16" y="239.78" font-size="7.17" fill="#6F6B62" text-anchor="end">© 2026 James Wabenga Yango</text>
<text x="4" y="78.81" font-size="4.51" fill="#002147">Hodrick et Prescott, λ = 14400</text>
<text x="4" y="106.03" font-size="4.51" fill="#002147">Régression de Hamilton, h = 24, p = 12</text>
<text x="4" y="133.24" font-size="4.51" fill="#002147">Passe-bande de Baxter et King, 18-96 mois</text>
<text x="4" y="160.46" font-size="4.51" fill="#002147">Passe-bande de Christiano et Fitzgerald, 18-96 mois</text>
<text x="4" y="187.68" font-size="4.51" fill="#002147">Différence première</text>
<rect x="84.57" y="82.17" width="26.92" height="14.29" fill="#22201C" fill-opacity="0.055"/>
<rect x="181.37" y="82.17" width="16.2" height="14.29" fill="#22201C" fill-opacity="0.055"/>
<rect x="251.3" y="82.17" width="21.56" height="14.29" fill="#22201C" fill-opacity="0.055"/>
<line x1="27.25" y1="82.17" x2="27.25" y2="96.46" stroke="#E3DFD4" stroke-width="0.32"/>
<line x1="48.75" y1="82.17" x2="48.75" y2="96.46" stroke="#E3DFD4" stroke-width="0.32"/>
<line x1="70.26" y1="82.17" x2="70.26" y2="96.46" stroke="#E3DFD4" stroke-width="0.32"/>
<line x1="91.76" y1="82.17" x2="91.76" y2="96.46" stroke="#E3DFD4" stroke-width="0.32"/>
<line x1="113.32" y1="82.17" x2="113.32" y2="96.46" stroke="#E3DFD4" stroke-width="0.32"/>
<line x1="134.83" y1="82.17" x2="134.83" y2="96.46" stroke="#E3DFD4" stroke-width="0.32"/>
<line x1="156.33" y1="82.17" x2="156.33" y2="96.46" stroke="#E3DFD4" stroke-width="0.32"/>
<line x1="177.84" y1="82.17" x2="177.84" y2="96.46" stroke="#E3DFD4" stroke-width="0.32"/>
<line x1="199.4" y1="82.17" x2="199.4" y2="96.46" stroke="#E3DFD4" stroke-width="0.32"/>
<line x1="220.9" y1="82.17" x2="220.9" y2="96.46" stroke="#E3DFD4" stroke-width="0.32"/>
<line x1="242.41" y1="82.17" x2="242.41" y2="96.46" stroke="#E3DFD4" stroke-width="0.32"/>
<line x1="263.91" y1="82.17" x2="263.91" y2="96.46" stroke="#E3DFD4" stroke-width="0.32"/>
<line x1="285.47" y1="82.17" x2="285.47" y2="96.46" stroke="#E3DFD4" stroke-width="0.32"/>
<line x1="306.98" y1="82.17" x2="306.98" y2="96.46" stroke="#E3DFD4" stroke-width="0.32"/>
<line x1="12.73" y1="93.35" x2="332.16" y2="93.35" stroke="#E3DFD4" stroke-width="0.32"/>
<text x="9.73" y="94.73" font-size="4.07" fill="#22201C" text-anchor="end">-1</text>
<line x1="12.73" y1="88.85" x2="332.16" y2="88.85" stroke="#E3DFD4" stroke-width="0.32"/>
<text x="9.73" y="90.24" font-size="4.07" fill="#22201C" text-anchor="end">0</text>
<line x1="12.73" y1="84.36" x2="332.16" y2="84.36" stroke="#E3DFD4" stroke-width="0.32"/>
<text x="9.73" y="85.74" font-size="4.07" fill="#22201C" text-anchor="end">1</text>
<line x1="12.73" y1="88.85" x2="332.16" y2="88.85" stroke="#6F6B62" stroke-width="0.36"/>
<polygon points="27.25,88.85 27.25,88.37 29.08,88.33 30.73,88.38 32.55,88.34 34.32,88.52 36.15,88.62 37.91,88.62 39.74,88.67 41.57,88.68 43.33,88.65 45.16,88.7 46.93,88.67 48.75,88.77 50.58,88.78 52.23,88.76 54.06,88.73 55.82,88.75 57.65,88.74 59.42,88.81 61.24,88.84 63.07,88.88 64.84,88.92 66.66,88.97 68.43,88.88 70.26,88.98 72.08,89.05 73.73,89.11 75.56,89.14 77.33,89.22 79.15,89.26 80.92,89.35 82.75,89.41 84.57,89.51 86.34,89.72 88.17,89.84 89.94,89.42 91.76,89.11 93.59,89.07 95.3,89.31 97.12,89.42 98.89,89.58 100.72,89.7 102.48,89.83 104.31,89.96 106.14,90.15 107.9,90.34 109.73,90.48 111.5,90.1 113.32,89.8 115.15,89.96 116.8,89.57 118.63,89.28 120.39,89.44 122.22,89.05 123.99,88.75 125.81,88.9 127.64,89.13 129.41,89.3 131.23,89.43 133,88.96 134.83,88.61 136.65,88.71 138.3,88.43 140.13,87.73 141.9,87.78 143.72,87.32 145.49,86.98 147.32,87.02 149.14,86.87 150.91,85.79 152.74,85.73 154.51,85.38 156.33,84.74 158.16,84.66 159.81,84.52 161.63,84.35 163.4,84.35 165.23,84.24 167,83.99 168.82,85.02 170.65,85.23 172.42,85.97 174.24,87.02 176.01,86.81 177.84,86.6 179.66,86.26 181.37,90.24 183.2,92.74 184.96,92.57 186.79,92.28 188.56,92.09 190.38,91.94 192.21,91.89 193.98,91.83 195.8,91.8 197.57,91.8 199.4,91.84 201.22,91.96 202.87,92.11 204.7,92.25 206.47,92.48 208.29,92.62 210.06,92.79 211.89,93.14 213.71,93.52 215.48,93.9 217.31,94.32 219.08,94.78 220.9,95.27 222.73,95.79 224.38,95.81 226.2,95.81 227.97,94.44 229.8,93.09 231.57,91.62 233.39,89.36 235.22,88.99 236.99,87.33 238.81,84.85 240.58,84.07 242.41,83.68 244.23,83.24 245.88,83.5 247.71,83.28 249.47,82.82 251.3,83.27 253.07,83.6 254.9,83.14 256.72,83.59 258.49,84.01 260.32,84.39 262.08,84.74 263.91,85.05 265.74,85.33 267.44,85.57 269.27,85.79 271.04,85.97 272.86,86.12 274.63,86.24 276.46,86.34 278.28,87.31 280.05,88.7 281.88,89.58 283.65,90.31 285.47,90.97 287.3,90.95 288.95,90.91 290.77,90.86 292.54,90.81 294.37,90.74 296.13,90.67 297.96,90.59 299.79,90.51 301.56,90.42 303.38,90.33 305.15,90.24 306.98,90.14 308.8,90.05 310.45,89.95 312.28,89.85 314.04,89.76 315.87,89.66 317.64,89.56 317.64,88.85" fill="#002147" stroke="none" fill-opacity="0.16"/>
<polyline points="27.25,88.37 29.08,88.33 30.73,88.38 32.55,88.34 34.32,88.52 36.15,88.62 37.91,88.62 39.74,88.67 41.57,88.68 43.33,88.65 45.16,88.7 46.93,88.67 48.75,88.77 50.58,88.78 52.23,88.76 54.06,88.73 55.82,88.75 57.65,88.74 59.42,88.81 61.24,88.84 63.07,88.88 64.84,88.92 66.66,88.97 68.43,88.88 70.26,88.98 72.08,89.05 73.73,89.11 75.56,89.14 77.33,89.22 79.15,89.26 80.92,89.35 82.75,89.41 84.57,89.51 86.34,89.72 88.17,89.84 89.94,89.42 91.76,89.11 93.59,89.07 95.3,89.31 97.12,89.42 98.89,89.58 100.72,89.7 102.48,89.83 104.31,89.96 106.14,90.15 107.9,90.34 109.73,90.48 111.5,90.1 113.32,89.8 115.15,89.96 116.8,89.57 118.63,89.28 120.39,89.44 122.22,89.05 123.99,88.75 125.81,88.9 127.64,89.13 129.41,89.3 131.23,89.43 133,88.96 134.83,88.61 136.65,88.71 138.3,88.43 140.13,87.73 141.9,87.78 143.72,87.32 145.49,86.98 147.32,87.02 149.14,86.87 150.91,85.79 152.74,85.73 154.51,85.38 156.33,84.74 158.16,84.66 159.81,84.52 161.63,84.35 163.4,84.35 165.23,84.24 167,83.99 168.82,85.02 170.65,85.23 172.42,85.97 174.24,87.02 176.01,86.81 177.84,86.6 179.66,86.26 181.37,90.24 183.2,92.74 184.96,92.57 186.79,92.28 188.56,92.09 190.38,91.94 192.21,91.89 193.98,91.83 195.8,91.8 197.57,91.8 199.4,91.84 201.22,91.96 202.87,92.11 204.7,92.25 206.47,92.48 208.29,92.62 210.06,92.79 211.89,93.14 213.71,93.52 215.48,93.9 217.31,94.32 219.08,94.78 220.9,95.27 222.73,95.79 224.38,95.81 226.2,95.81 227.97,94.44 229.8,93.09 231.57,91.62 233.39,89.36 235.22,88.99 236.99,87.33 238.81,84.85 240.58,84.07 242.41,83.68 244.23,83.24 245.88,83.5 247.71,83.28 249.47,82.82 251.3,83.27 253.07,83.6 254.9,83.14 256.72,83.59 258.49,84.01 260.32,84.39 262.08,84.74 263.91,85.05 265.74,85.33 267.44,85.57 269.27,85.79 271.04,85.97 272.86,86.12 274.63,86.24 276.46,86.34 278.28,87.31 280.05,88.7 281.88,89.58 283.65,90.31 285.47,90.97 287.3,90.95 288.95,90.91 290.77,90.86 292.54,90.81 294.37,90.74 296.13,90.67 297.96,90.59 299.79,90.51 301.56,90.42 303.38,90.33 305.15,90.24 306.98,90.14 308.8,90.05 310.45,89.95 312.28,89.85 314.04,89.76 315.87,89.66 317.64,89.56" fill="none" stroke="#002147" stroke-width="0.6" stroke-linejoin="round" stroke-linecap="round"/>
<rect x="84.57" y="109.39" width="26.92" height="14.29" fill="#22201C" fill-opacity="0.055"/>
<rect x="181.37" y="109.39" width="16.2" height="14.29" fill="#22201C" fill-opacity="0.055"/>
<rect x="251.3" y="109.39" width="21.56" height="14.29" fill="#22201C" fill-opacity="0.055"/>
<line x1="27.25" y1="109.39" x2="27.25" y2="123.68" stroke="#E3DFD4" stroke-width="0.32"/>
<line x1="48.75" y1="109.39" x2="48.75" y2="123.68" stroke="#E3DFD4" stroke-width="0.32"/>
<line x1="70.26" y1="109.39" x2="70.26" y2="123.68" stroke="#E3DFD4" stroke-width="0.32"/>
<line x1="91.76" y1="109.39" x2="91.76" y2="123.68" stroke="#E3DFD4" stroke-width="0.32"/>
<line x1="113.32" y1="109.39" x2="113.32" y2="123.68" stroke="#E3DFD4" stroke-width="0.32"/>
<line x1="134.83" y1="109.39" x2="134.83" y2="123.68" stroke="#E3DFD4" stroke-width="0.32"/>
<line x1="156.33" y1="109.39" x2="156.33" y2="123.68" stroke="#E3DFD4" stroke-width="0.32"/>
<line x1="177.84" y1="109.39" x2="177.84" y2="123.68" stroke="#E3DFD4" stroke-width="0.32"/>
<line x1="199.4" y1="109.39" x2="199.4" y2="123.68" stroke="#E3DFD4" stroke-width="0.32"/>
<line x1="220.9" y1="109.39" x2="220.9" y2="123.68" stroke="#E3DFD4" stroke-width="0.32"/>
<line x1="242.41" y1="109.39" x2="242.41" y2="123.68" stroke="#E3DFD4" stroke-width="0.32"/>
<line x1="263.91" y1="109.39" x2="263.91" y2="123.68" stroke="#E3DFD4" stroke-width="0.32"/>
<line x1="285.47" y1="109.39" x2="285.47" y2="123.68" stroke="#E3DFD4" stroke-width="0.32"/>
<line x1="306.98" y1="109.39" x2="306.98" y2="123.68" stroke="#E3DFD4" stroke-width="0.32"/>
<line x1="12.73" y1="121.37" x2="332.16" y2="121.37" stroke="#E3DFD4" stroke-width="0.32"/>
<text x="9.73" y="122.76" font-size="4.07" fill="#22201C" text-anchor="end">-2</text>
<line x1="12.73" y1="113.32" x2="332.16" y2="113.32" stroke="#E3DFD4" stroke-width="0.32"/>
<text x="9.73" y="114.7" font-size="4.07" fill="#22201C" text-anchor="end">2</text>
<line x1="12.73" y1="117.35" x2="332.16" y2="117.35" stroke="#6F6B62" stroke-width="0.36"/>
<polygon points="89.94,117.35 89.94,120.4 91.76,120.06 93.59,120.06 95.3,120.13 97.12,120.15 98.89,120.07 100.72,120.14 102.48,119.99 104.31,120.01 106.14,119.97 107.9,119.98 109.73,119.95 111.5,119.86 113.32,119.47 115.15,119.53 116.8,119.2 118.63,119.07 120.39,118.98 122.22,118.79 123.99,118.5 125.81,118.56 127.64,118.5 129.41,118.4 131.23,118.44 133,118.84 134.83,118.83 136.65,118.8 138.3,118.24 140.13,117.86 141.9,117.56 143.72,117.29 145.49,117.02 147.32,117.06 149.14,116.85 150.91,116.36 152.74,116.49 154.51,117.19 156.33,117.18 158.16,116.92 159.81,117.45 161.63,117.46 163.4,117.12 165.23,117.54 167,117.49 168.82,117.58 170.65,117.32 172.42,117.52 174.24,118.05 176.01,118.81 177.84,118.93 179.66,118.78 181.37,121.05 183.2,122.82 184.96,122.3 186.79,122.83 188.56,122.56 190.38,122.15 192.21,121.93 193.98,123.03 195.8,122.24 197.57,122.71 199.4,122.71 201.22,122.41 202.87,122.25 204.7,122.05 206.47,121.79 208.29,121.71 210.06,121.71 211.89,120.13 213.71,120.78 215.48,119.65 217.31,119.26 219.08,120.27 220.9,120.92 222.73,121.68 224.38,116.35 226.2,115.97 227.97,116.44 229.8,117.32 231.57,116.94 233.39,117.02 235.22,116.89 236.99,115.97 238.81,114.67 240.58,114.19 242.41,113.81 244.23,112.18 245.88,111.29 247.71,110.96 249.47,110.49 251.3,110.63 253.07,110.62 254.9,110.11 256.72,110.06 258.49,110.07 260.32,110.05 262.08,110.05 263.91,110.04 265.74,110.04 267.44,110.74 269.27,111.1 271.04,113.36 272.86,114.38 274.63,115.77 276.46,117.3 278.28,116.32 280.05,118.07 281.88,119.18 283.65,118.23 285.47,117.19 287.3,116.41 288.95,114.76 290.77,114.71 292.54,114.85 294.37,114.15 296.13,114.35 297.96,115.01 299.79,114.56 301.56,115.05 303.38,114.89 305.15,115.04 306.98,114.96 308.8,115.04 310.45,115.14 312.28,115.43 314.04,115.4 315.87,115.46 317.64,115.7 317.64,117.35" fill="#8C2F27" stroke="none" fill-opacity="0.16"/>
<polyline points="89.94,120.4 91.76,120.06 93.59,120.06 95.3,120.13 97.12,120.15 98.89,120.07 100.72,120.14 102.48,119.99 104.31,120.01 106.14,119.97 107.9,119.98 109.73,119.95 111.5,119.86 113.32,119.47 115.15,119.53 116.8,119.2 118.63,119.07 120.39,118.98 122.22,118.79 123.99,118.5 125.81,118.56 127.64,118.5 129.41,118.4 131.23,118.44 133,118.84 134.83,118.83 136.65,118.8 138.3,118.24 140.13,117.86 141.9,117.56 143.72,117.29 145.49,117.02 147.32,117.06 149.14,116.85 150.91,116.36 152.74,116.49 154.51,117.19 156.33,117.18 158.16,116.92 159.81,117.45 161.63,117.46 163.4,117.12 165.23,117.54 167,117.49 168.82,117.58 170.65,117.32 172.42,117.52 174.24,118.05 176.01,118.81 177.84,118.93 179.66,118.78 181.37,121.05 183.2,122.82 184.96,122.3 186.79,122.83 188.56,122.56 190.38,122.15 192.21,121.93 193.98,123.03 195.8,122.24 197.57,122.71 199.4,122.71 201.22,122.41 202.87,122.25 204.7,122.05 206.47,121.79 208.29,121.71 210.06,121.71 211.89,120.13 213.71,120.78 215.48,119.65 217.31,119.26 219.08,120.27 220.9,120.92 222.73,121.68 224.38,116.35 226.2,115.97 227.97,116.44 229.8,117.32 231.57,116.94 233.39,117.02 235.22,116.89 236.99,115.97 238.81,114.67 240.58,114.19 242.41,113.81 244.23,112.18 245.88,111.29 247.71,110.96 249.47,110.49 251.3,110.63 253.07,110.62 254.9,110.11 256.72,110.06 258.49,110.07 260.32,110.05 262.08,110.05 263.91,110.04 265.74,110.04 267.44,110.74 269.27,111.1 271.04,113.36 272.86,114.38 274.63,115.77 276.46,117.3 278.28,116.32 280.05,118.07 281.88,119.18 283.65,118.23 285.47,117.19 287.3,116.41 288.95,114.76 290.77,114.71 292.54,114.85 294.37,114.15 296.13,114.35 297.96,115.01 299.79,114.56 301.56,115.05 303.38,114.89 305.15,115.04 306.98,114.96 308.8,115.04 310.45,115.14 312.28,115.43 314.04,115.4 315.87,115.46 317.64,115.7" fill="none" stroke="#8C2F27" stroke-width="0.6" stroke-linejoin="round" stroke-linecap="round"/>
<rect x="84.57" y="136.61" width="26.92" height="14.29" fill="#22201C" fill-opacity="0.055"/>
<rect x="181.37" y="136.61" width="16.2" height="14.29" fill="#22201C" fill-opacity="0.055"/>
<rect x="251.3" y="136.61" width="21.56" height="14.29" fill="#22201C" fill-opacity="0.055"/>
<line x1="27.25" y1="136.61" x2="27.25" y2="150.9" stroke="#E3DFD4" stroke-width="0.32"/>
<line x1="48.75" y1="136.61" x2="48.75" y2="150.9" stroke="#E3DFD4" stroke-width="0.32"/>
<line x1="70.26" y1="136.61" x2="70.26" y2="150.9" stroke="#E3DFD4" stroke-width="0.32"/>
<line x1="91.76" y1="136.61" x2="91.76" y2="150.9" stroke="#E3DFD4" stroke-width="0.32"/>
<line x1="113.32" y1="136.61" x2="113.32" y2="150.9" stroke="#E3DFD4" stroke-width="0.32"/>
<line x1="134.83" y1="136.61" x2="134.83" y2="150.9" stroke="#E3DFD4" stroke-width="0.32"/>
<line x1="156.33" y1="136.61" x2="156.33" y2="150.9" stroke="#E3DFD4" stroke-width="0.32"/>
<line x1="177.84" y1="136.61" x2="177.84" y2="150.9" stroke="#E3DFD4" stroke-width="0.32"/>
<line x1="199.4" y1="136.61" x2="199.4" y2="150.9" stroke="#E3DFD4" stroke-width="0.32"/>
<line x1="220.9" y1="136.61" x2="220.9" y2="150.9" stroke="#E3DFD4" stroke-width="0.32"/>
<line x1="242.41" y1="136.61" x2="242.41" y2="150.9" stroke="#E3DFD4" stroke-width="0.32"/>
<line x1="263.91" y1="136.61" x2="263.91" y2="150.9" stroke="#E3DFD4" stroke-width="0.32"/>
<line x1="285.47" y1="136.61" x2="285.47" y2="150.9" stroke="#E3DFD4" stroke-width="0.32"/>
<line x1="306.98" y1="136.61" x2="306.98" y2="150.9" stroke="#E3DFD4" stroke-width="0.32"/>
<line x1="12.73" y1="149.86" x2="332.16" y2="149.86" stroke="#E3DFD4" stroke-width="0.32"/>
<text x="9.73" y="151.25" font-size="4.07" fill="#22201C" text-anchor="end">-2</text>
<line x1="12.73" y1="143.45" x2="332.16" y2="143.45" stroke="#E3DFD4" stroke-width="0.32"/>
<text x="9.73" y="144.83" font-size="4.07" fill="#22201C" text-anchor="end">0</text>
<line x1="12.73" y1="137.03" x2="332.16" y2="137.03" stroke="#E3DFD4" stroke-width="0.32"/>
<text x="9.73" y="138.41" font-size="4.07" fill="#22201C" text-anchor="end">2</text>
<line x1="12.73" y1="143.45" x2="332.16" y2="143.45" stroke="#6F6B62" stroke-width="0.36"/>
<polygon points="91.76,143.45 91.76,144.36 93.59,144.4 95.3,144.44 97.12,144.48 98.89,144.51 100.72,144.54 102.48,144.56 104.31,144.56 106.14,144.54 107.9,144.5 109.73,144.43 111.5,144.35 113.32,144.24 115.15,144.13 116.8,144 118.63,143.84 120.39,143.68 122.22,143.51 123.99,143.33 125.81,143.17 127.64,143.01 129.41,142.86 131.23,142.72 133,142.59 134.83,142.45 136.65,142.32 138.3,142.17 140.13,142 141.9,141.81 143.72,141.58 145.49,141.33 147.32,141.04 149.14,140.73 150.91,140.41 152.74,140.09 154.51,139.78 156.33,139.5 158.16,139.28 159.81,139.14 161.63,139.08 163.4,139.14 165.23,139.31 167,139.61 168.82,140.04 170.65,140.59 172.42,141.24 174.24,141.98 176.01,142.77 177.84,143.6 179.66,144.41 181.37,145.19 183.2,145.9 184.96,146.51 186.79,147.02 188.56,147.42 190.38,147.7 192.21,147.88 193.98,147.98 195.8,148.02 197.57,148.03 199.4,148.03 201.22,148.05 202.87,148.12 204.7,148.25 206.47,148.45 208.29,148.72 210.06,149.03 211.89,149.37 213.71,149.7 215.48,149.98 217.31,150.17 219.08,150.25 220.9,150.16 222.73,149.9 224.38,149.46 226.2,148.82 227.97,148.01 229.8,147.05 231.57,145.97 233.39,144.81 235.22,143.63 236.99,142.46 238.81,141.35 240.58,140.33 242.41,139.44 244.23,138.7 245.88,138.11 247.71,137.7 249.47,137.43 251.3,137.29 253.07,137.26 253.07,143.45" fill="#3F6B52" stroke="none" fill-opacity="0.16"/>
<polyline points="91.76,144.36 93.59,144.4 95.3,144.44 97.12,144.48 98.89,144.51 100.72,144.54 102.48,144.56 104.31,144.56 106.14,144.54 107.9,144.5 109.73,144.43 111.5,144.35 113.32,144.24 115.15,144.13 116.8,144 118.63,143.84 120.39,143.68 122.22,143.51 123.99,143.33 125.81,143.17 127.64,143.01 129.41,142.86 131.23,142.72 133,142.59 134.83,142.45 136.65,142.32 138.3,142.17 140.13,142 141.9,141.81 143.72,141.58 145.49,141.33 147.32,141.04 149.14,140.73 150.91,140.41 152.74,140.09 154.51,139.78 156.33,139.5 158.16,139.28 159.81,139.14 161.63,139.08 163.4,139.14 165.23,139.31 167,139.61 168.82,140.04 170.65,140.59 172.42,141.24 174.24,141.98 176.01,142.77 177.84,143.6 179.66,144.41 181.37,145.19 183.2,145.9 184.96,146.51 186.79,147.02 188.56,147.42 190.38,147.7 192.21,147.88 193.98,147.98 195.8,148.02 197.57,148.03 199.4,148.03 201.22,148.05 202.87,148.12 204.7,148.25 206.47,148.45 208.29,148.72 210.06,149.03 211.89,149.37 213.71,149.7 215.48,149.98 217.31,150.17 219.08,150.25 220.9,150.16 222.73,149.9 224.38,149.46 226.2,148.82 227.97,148.01 229.8,147.05 231.57,145.97 233.39,144.81 235.22,143.63 236.99,142.46 238.81,141.35 240.58,140.33 242.41,139.44 244.23,138.7 245.88,138.11 247.71,137.7 249.47,137.43 251.3,137.29 253.07,137.26" fill="none" stroke="#3F6B52" stroke-width="0.6" stroke-linejoin="round" stroke-linecap="round"/>
<rect x="84.57" y="163.83" width="26.92" height="14.29" fill="#22201C" fill-opacity="0.055"/>
<rect x="181.37" y="163.83" width="16.2" height="14.29" fill="#22201C" fill-opacity="0.055"/>
<rect x="251.3" y="163.83" width="21.56" height="14.29" fill="#22201C" fill-opacity="0.055"/>
<line x1="27.25" y1="163.83" x2="27.25" y2="178.12" stroke="#E3DFD4" stroke-width="0.32"/>
<line x1="48.75" y1="163.83" x2="48.75" y2="178.12" stroke="#E3DFD4" stroke-width="0.32"/>
<line x1="70.26" y1="163.83" x2="70.26" y2="178.12" stroke="#E3DFD4" stroke-width="0.32"/>
<line x1="91.76" y1="163.83" x2="91.76" y2="178.12" stroke="#E3DFD4" stroke-width="0.32"/>
<line x1="113.32" y1="163.83" x2="113.32" y2="178.12" stroke="#E3DFD4" stroke-width="0.32"/>
<line x1="134.83" y1="163.83" x2="134.83" y2="178.12" stroke="#E3DFD4" stroke-width="0.32"/>
<line x1="156.33" y1="163.83" x2="156.33" y2="178.12" stroke="#E3DFD4" stroke-width="0.32"/>
<line x1="177.84" y1="163.83" x2="177.84" y2="178.12" stroke="#E3DFD4" stroke-width="0.32"/>
<line x1="199.4" y1="163.83" x2="199.4" y2="178.12" stroke="#E3DFD4" stroke-width="0.32"/>
<line x1="220.9" y1="163.83" x2="220.9" y2="178.12" stroke="#E3DFD4" stroke-width="0.32"/>
<line x1="242.41" y1="163.83" x2="242.41" y2="178.12" stroke="#E3DFD4" stroke-width="0.32"/>
<line x1="263.91" y1="163.83" x2="263.91" y2="178.12" stroke="#E3DFD4" stroke-width="0.32"/>
<line x1="285.47" y1="163.83" x2="285.47" y2="178.12" stroke="#E3DFD4" stroke-width="0.32"/>
<line x1="306.98" y1="163.83" x2="306.98" y2="178.12" stroke="#E3DFD4" stroke-width="0.32"/>
<line x1="12.73" y1="177.03" x2="332.16" y2="177.03" stroke="#E3DFD4" stroke-width="0.32"/>
<text x="9.73" y="178.42" font-size="4.07" fill="#22201C" text-anchor="end">-2</text>
<line x1="12.73" y1="170.64" x2="332.16" y2="170.64" stroke="#E3DFD4" stroke-width="0.32"/>
<text x="9.73" y="172.03" font-size="4.07" fill="#22201C" text-anchor="end">0</text>
<line x1="12.73" y1="164.25" x2="332.16" y2="164.25" stroke="#E3DFD4" stroke-width="0.32"/>
<text x="9.73" y="165.63" font-size="4.07" fill="#22201C" text-anchor="end">2</text>
<line x1="12.73" y1="170.64" x2="332.16" y2="170.64" stroke="#6F6B62" stroke-width="0.36"/>
<polygon points="27.25,170.64 27.25,169.99 29.08,170.04 30.73,170.1 32.55,170.17 34.32,170.26 36.15,170.35 37.91,170.46 39.74,170.58 41.57,170.71 43.33,170.83 45.16,170.96 46.93,171.08 48.75,171.19 50.58,171.3 52.23,171.39 54.06,171.46 55.82,171.53 57.65,171.58 59.42,171.63 61.24,171.68 63.07,171.72 64.84,171.77 66.66,171.82 68.43,171.88 70.26,171.95 72.08,172.02 73.73,172.09 75.56,172.16 77.33,172.22 79.15,172.27 80.92,172.31 82.75,172.33 84.57,172.34 86.34,172.32 88.17,172.29 89.94,172.24 91.76,172.19 93.59,172.12 95.3,172.05 97.12,171.98 98.89,171.91 100.72,171.85 102.48,171.79 104.31,171.74 106.14,171.68 107.9,171.61 109.73,171.53 111.5,171.43 113.32,171.31 115.15,171.16 116.8,170.98 118.63,170.77 120.39,170.54 122.22,170.29 123.99,170.03 125.81,169.76 127.64,169.5 129.41,169.25 131.23,169.02 133,168.8 134.83,168.61 136.65,168.43 138.3,168.26 140.13,168.1 141.9,167.93 143.72,167.75 145.49,167.55 147.32,167.32 149.14,167.07 150.91,166.79 152.74,166.5 154.51,166.22 156.33,165.95 158.16,165.73 159.81,165.58 161.63,165.51 163.4,165.56 165.23,165.74 167,166.05 168.82,166.51 170.65,167.09 172.42,167.79 174.24,168.58 176.01,169.43 177.84,170.31 179.66,171.17 181.37,172 183.2,172.75 184.96,173.39 186.79,173.93 188.56,174.34 190.38,174.63 192.21,174.82 193.98,174.92 195.8,174.96 197.57,174.98 199.4,175 201.22,175.06 202.87,175.16 204.7,175.34 206.47,175.58 208.29,175.88 210.06,176.22 211.89,176.58 213.71,176.92 215.48,177.21 217.31,177.4 219.08,177.47 220.9,177.38 222.73,177.11 224.38,176.65 226.2,176 227.97,175.19 229.8,174.23 231.57,173.15 233.39,172 235.22,170.82 236.99,169.66 238.81,168.56 240.58,167.55 242.41,166.67 244.23,165.94 245.88,165.36 247.71,164.93 249.47,164.65 251.3,164.51 253.07,164.48 254.9,164.54 256.72,164.66 258.49,164.84 260.32,165.04 262.08,165.27 263.91,165.51 265.74,165.75 267.44,166.01 269.27,166.29 271.04,166.59 272.86,166.92 274.63,167.28 276.46,167.68 278.28,168.12 280.05,168.58 281.88,169.06 283.65,169.55 285.47,170.04 287.3,170.5 288.95,170.92 290.77,171.29 292.54,171.6 294.37,171.85 296.13,172.04 297.96,172.16 299.79,172.23 301.56,172.26 303.38,172.25 305.15,172.24 306.98,172.21 308.8,172.2 310.45,172.2 312.28,172.22 314.04,172.26 315.87,172.32 317.64,172.39 317.64,170.64" fill="#8A6A18" stroke="none" fill-opacity="0.16"/>
<polyline points="27.25,169.99 29.08,170.04 30.73,170.1 32.55,170.17 34.32,170.26 36.15,170.35 37.91,170.46 39.74,170.58 41.57,170.71 43.33,170.83 45.16,170.96 46.93,171.08 48.75,171.19 50.58,171.3 52.23,171.39 54.06,171.46 55.82,171.53 57.65,171.58 59.42,171.63 61.24,171.68 63.07,171.72 64.84,171.77 66.66,171.82 68.43,171.88 70.26,171.95 72.08,172.02 73.73,172.09 75.56,172.16 77.33,172.22 79.15,172.27 80.92,172.31 82.75,172.33 84.57,172.34 86.34,172.32 88.17,172.29 89.94,172.24 91.76,172.19 93.59,172.12 95.3,172.05 97.12,171.98 98.89,171.91 100.72,171.85 102.48,171.79 104.31,171.74 106.14,171.68 107.9,171.61 109.73,171.53 111.5,171.43 113.32,171.31 115.15,171.16 116.8,170.98 118.63,170.77 120.39,170.54 122.22,170.29 123.99,170.03 125.81,169.76 127.64,169.5 129.41,169.25 131.23,169.02 133,168.8 134.83,168.61 136.65,168.43 138.3,168.26 140.13,168.1 141.9,167.93 143.72,167.75 145.49,167.55 147.32,167.32 149.14,167.07 150.91,166.79 152.74,166.5 154.51,166.22 156.33,165.95 158.16,165.73 159.81,165.58 161.63,165.51 163.4,165.56 165.23,165.74 167,166.05 168.82,166.51 170.65,167.09 172.42,167.79 174.24,168.58 176.01,169.43 177.84,170.31 179.66,171.17 181.37,172 183.2,172.75 184.96,173.39 186.79,173.93 188.56,174.34 190.38,174.63 192.21,174.82 193.98,174.92 195.8,174.96 197.57,174.98 199.4,175 201.22,175.06 202.87,175.16 204.7,175.34 206.47,175.58 208.29,175.88 210.06,176.22 211.89,176.58 213.71,176.92 215.48,177.21 217.31,177.4 219.08,177.47 220.9,177.38 222.73,177.11 224.38,176.65 226.2,176 227.97,175.19 229.8,174.23 231.57,173.15 233.39,172 235.22,170.82 236.99,169.66 238.81,168.56 240.58,167.55 242.41,166.67 244.23,165.94 245.88,165.36 247.71,164.93 249.47,164.65 251.3,164.51 253.07,164.48 254.9,164.54 256.72,164.66 258.49,164.84 260.32,165.04 262.08,165.27 263.91,165.51 265.74,165.75 267.44,166.01 269.27,166.29 271.04,166.59 272.86,166.92 274.63,167.28 276.46,167.68 278.28,168.12 280.05,168.58 281.88,169.06 283.65,169.55 285.47,170.04 287.3,170.5 288.95,170.92 290.77,171.29 292.54,171.6 294.37,171.85 296.13,172.04 297.96,172.16 299.79,172.23 301.56,172.26 303.38,172.25 305.15,172.24 306.98,172.21 308.8,172.2 310.45,172.2 312.28,172.22 314.04,172.26 315.87,172.32 317.64,172.39" fill="none" stroke="#8A6A18" stroke-width="0.6" stroke-linejoin="round" stroke-linecap="round"/>
<rect x="84.57" y="191.05" width="26.92" height="14.29" fill="#22201C" fill-opacity="0.055"/>
<rect x="181.37" y="191.05" width="16.2" height="14.29" fill="#22201C" fill-opacity="0.055"/>
<rect x="251.3" y="191.05" width="21.56" height="14.29" fill="#22201C" fill-opacity="0.055"/>
<line x1="27.25" y1="191.05" x2="27.25" y2="205.34" stroke="#E3DFD4" stroke-width="0.32"/>
<text x="27.25" y="211.51" font-size="4.07" fill="#22201C" text-anchor="middle">2013</text>
<line x1="48.75" y1="191.05" x2="48.75" y2="205.34" stroke="#E3DFD4" stroke-width="0.32"/>
<text x="48.75" y="211.51" font-size="4.07" fill="#22201C" text-anchor="middle">2014</text>
<line x1="70.26" y1="191.05" x2="70.26" y2="205.34" stroke="#E3DFD4" stroke-width="0.32"/>
<text x="70.26" y="211.51" font-size="4.07" fill="#22201C" text-anchor="middle">2015</text>
<line x1="91.76" y1="191.05" x2="91.76" y2="205.34" stroke="#E3DFD4" stroke-width="0.32"/>
<text x="91.76" y="211.51" font-size="4.07" fill="#22201C" text-anchor="middle">2016</text>
<line x1="113.32" y1="191.05" x2="113.32" y2="205.34" stroke="#E3DFD4" stroke-width="0.32"/>
<text x="113.32" y="211.51" font-size="4.07" fill="#22201C" text-anchor="middle">2017</text>
<line x1="134.83" y1="191.05" x2="134.83" y2="205.34" stroke="#E3DFD4" stroke-width="0.32"/>
<text x="134.83" y="211.51" font-size="4.07" fill="#22201C" text-anchor="middle">2018</text>
<line x1="156.33" y1="191.05" x2="156.33" y2="205.34" stroke="#E3DFD4" stroke-width="0.32"/>
<text x="156.33" y="211.51" font-size="4.07" fill="#22201C" text-anchor="middle">2019</text>
<line x1="177.84" y1="191.05" x2="177.84" y2="205.34" stroke="#E3DFD4" stroke-width="0.32"/>
<text x="177.84" y="211.51" font-size="4.07" fill="#22201C" text-anchor="middle">2020</text>
<line x1="199.4" y1="191.05" x2="199.4" y2="205.34" stroke="#E3DFD4" stroke-width="0.32"/>
<text x="199.4" y="211.51" font-size="4.07" fill="#22201C" text-anchor="middle">2021</text>
<line x1="220.9" y1="191.05" x2="220.9" y2="205.34" stroke="#E3DFD4" stroke-width="0.32"/>
<text x="220.9" y="211.51" font-size="4.07" fill="#22201C" text-anchor="middle">2022</text>
<line x1="242.41" y1="191.05" x2="242.41" y2="205.34" stroke="#E3DFD4" stroke-width="0.32"/>
<text x="242.41" y="211.51" font-size="4.07" fill="#22201C" text-anchor="middle">2023</text>
<line x1="263.91" y1="191.05" x2="263.91" y2="205.34" stroke="#E3DFD4" stroke-width="0.32"/>
<text x="263.91" y="211.51" font-size="4.07" fill="#22201C" text-anchor="middle">2024</text>
<line x1="285.47" y1="191.05" x2="285.47" y2="205.34" stroke="#E3DFD4" stroke-width="0.32"/>
<text x="285.47" y="211.51" font-size="4.07" fill="#22201C" text-anchor="middle">2025</text>
<line x1="306.98" y1="191.05" x2="306.98" y2="205.34" stroke="#E3DFD4" stroke-width="0.32"/>
<text x="306.98" y="211.51" font-size="4.07" fill="#22201C" text-anchor="middle">2026</text>
<line x1="12.73" y1="205.24" x2="332.16" y2="205.24" stroke="#E3DFD4" stroke-width="0.32"/>
<text x="9.73" y="206.63" font-size="4.07" fill="#22201C" text-anchor="end">-1</text>
<line x1="12.73" y1="197.28" x2="332.16" y2="197.28" stroke="#E3DFD4" stroke-width="0.32"/>
<text x="9.73" y="198.66" font-size="4.07" fill="#22201C" text-anchor="end">0</text>
<line x1="12.73" y1="197.28" x2="332.16" y2="197.28" stroke="#6F6B62" stroke-width="0.36"/>
<polygon points="29.08,197.28 29.08,197.2 30.73,197.36 32.55,197.2 34.32,197.59 36.15,197.43 37.91,197.28 39.74,197.36 41.57,197.28 43.33,197.2 45.16,197.36 46.93,197.2 48.75,197.43 50.58,197.28 52.23,197.2 54.06,197.2 55.82,197.28 57.65,197.2 59.42,197.36 61.24,197.28 63.07,197.28 64.84,197.28 66.66,197.28 68.43,197.04 70.26,197.36 72.08,197.28 73.73,197.28 75.56,197.2 77.33,197.28 79.15,197.2 80.92,197.28 82.75,197.2 84.57,197.28 86.34,197.43 88.17,197.28 89.94,196.32 91.76,196.48 93.59,196.96 95.3,197.43 97.12,197.2 98.89,197.28 100.72,197.2 102.48,197.2 104.31,197.2 106.14,197.28 107.9,197.28 109.73,197.2 111.5,196.24 113.32,196.4 115.15,197.2 116.8,196.24 118.63,196.4 120.39,197.2 122.22,196.24 123.99,196.4 125.81,197.2 127.64,197.36 129.41,197.28 131.23,197.2 133,196.16 134.83,196.4 136.65,197.2 138.3,196.56 140.13,195.84 141.9,197.2 143.72,196.32 145.49,196.56 147.32,197.28 149.14,196.96 150.91,195.36 152.74,197.2 154.51,196.72 156.33,196.24 158.16,197.28 159.81,197.2 161.63,197.2 163.4,197.51 165.23,197.36 167,197.12 168.82,199.43 170.65,197.99 172.42,198.95 174.24,199.51 176.01,197.28 177.84,197.28 179.66,197.04 181.37,204.69 183.2,202.06 184.96,197.28 186.79,197.04 188.56,197.2 190.38,197.2 192.21,197.36 193.98,197.28 195.8,197.28 197.57,197.28 199.4,197.28 201.22,197.36 202.87,197.36 204.7,197.28 206.47,197.36 208.29,197.12 210.06,197.12 211.89,197.36 213.71,197.36 215.48,197.28 217.31,197.28 219.08,197.28 220.9,197.28 222.73,197.28 224.38,196.32 226.2,196.24 227.97,193.77 229.8,193.77 231.57,193.53 233.39,192.1 235.22,195.44 236.99,193.13 238.81,191.7 240.58,194.73 242.41,195.44 244.23,195.36 245.88,196.64 247.71,195.84 249.47,195.44 251.3,197.12 253.07,196.96 254.9,195.6 256.72,197.28 258.49,197.28 260.32,197.28 262.08,197.28 263.91,197.28 265.74,197.28 267.44,197.28 269.27,197.28 271.04,197.28 272.86,197.28 274.63,197.28 276.46,197.28 278.28,198.87 280.05,199.67 281.88,198.79 283.65,198.55 285.47,198.47 287.3,197.28 288.95,197.28 290.77,197.28 292.54,197.28 294.37,197.28 296.13,197.28 297.96,197.28 299.79,197.28 301.56,197.28 303.38,197.28 305.15,197.28 306.98,197.28 308.8,197.28 310.45,197.28 312.28,197.28 314.04,197.28 315.87,197.28 317.64,197.28 317.64,197.28" fill="#5B3A6B" stroke="none" fill-opacity="0.16"/>
<polyline points="29.08,197.2 30.73,197.36 32.55,197.2 34.32,197.59 36.15,197.43 37.91,197.28 39.74,197.36 41.57,197.28 43.33,197.2 45.16,197.36 46.93,197.2 48.75,197.43 50.58,197.28 52.23,197.2 54.06,197.2 55.82,197.28 57.65,197.2 59.42,197.36 61.24,197.28 63.07,197.28 64.84,197.28 66.66,197.28 68.43,197.04 70.26,197.36 72.08,197.28 73.73,197.28 75.56,197.2 77.33,197.28 79.15,197.2 80.92,197.28 82.75,197.2 84.57,197.28 86.34,197.43 88.17,197.28 89.94,196.32 91.76,196.48 93.59,196.96 95.3,197.43 97.12,197.2 98.89,197.28 100.72,197.2 102.48,197.2 104.31,197.2 106.14,197.28 107.9,197.28 109.73,197.2 111.5,196.24 113.32,196.4 115.15,197.2 116.8,196.24 118.63,196.4 120.39,197.2 122.22,196.24 123.99,196.4 125.81,197.2 127.64,197.36 129.41,197.28 131.23,197.2 133,196.16 134.83,196.4 136.65,197.2 138.3,196.56 140.13,195.84 141.9,197.2 143.72,196.32 145.49,196.56 147.32,197.28 149.14,196.96 150.91,195.36 152.74,197.2 154.51,196.72 156.33,196.24 158.16,197.28 159.81,197.2 161.63,197.2 163.4,197.51 165.23,197.36 167,197.12 168.82,199.43 170.65,197.99 172.42,198.95 174.24,199.51 176.01,197.28 177.84,197.28 179.66,197.04 181.37,204.69 183.2,202.06 184.96,197.28 186.79,197.04 188.56,197.2 190.38,197.2 192.21,197.36 193.98,197.28 195.8,197.28 197.57,197.28 199.4,197.28 201.22,197.36 202.87,197.36 204.7,197.28 206.47,197.36 208.29,197.12 210.06,197.12 211.89,197.36 213.71,197.36 215.48,197.28 217.31,197.28 219.08,197.28 220.9,197.28 222.73,197.28 224.38,196.32 226.2,196.24 227.97,193.77 229.8,193.77 231.57,193.53 233.39,192.1 235.22,195.44 236.99,193.13 238.81,191.7 240.58,194.73 242.41,195.44 244.23,195.36 245.88,196.64 247.71,195.84 249.47,195.44 251.3,197.12 253.07,196.96 254.9,195.6 256.72,197.28 258.49,197.28 260.32,197.28 262.08,197.28 263.91,197.28 265.74,197.28 267.44,197.28 269.27,197.28 271.04,197.28 272.86,197.28 274.63,197.28 276.46,197.28 278.28,198.87 280.05,199.67 281.88,198.79 283.65,198.55 285.47,198.47 287.3,197.28 288.95,197.28 290.77,197.28 292.54,197.28 294.37,197.28 296.13,197.28 297.96,197.28 299.79,197.28 301.56,197.28 303.38,197.28 305.15,197.28 306.98,197.28 308.8,197.28 310.45,197.28 312.28,197.28 314.04,197.28 315.87,197.28 317.64,197.28" fill="none" stroke="#5B3A6B" stroke-width="0.6" stroke-linejoin="round" stroke-linecap="round"/>
</g>
</svg>
