<svg xmlns="http://www.w3.org/2000/svg" viewBox="0 0 340.16 243.78">
<g font-family="Iowan Old Style, Palatino Linotype, Palatino, Georgia, Cambria, serif">
<text x="4" y="13.48" font-size="12.16" fill="#002147" font-weight="bold">Copper price: one series, five filters</text>
<text x="4" y="27.07" font-size="8.93" fill="#6F6B62">Cyclical component, per cent. The vertical scale is free in each panel: what</text>
<text x="4" y="37.43" font-size="8.93" fill="#6F6B62">is read here is the timing of the turns, not the size of the gap.</text>
<text x="4" y="227.78" font-size="7.79" fill="#6F6B62">Central Bank of the Congo, World Bank, IMF; author’s calculations.</text>
<text x="332.16" y="239.78" font-size="7.17" fill="#6F6B62" text-anchor="end">© 2026 James Wabenga Yango</text>
<text x="4" y="55.3" font-size="5.74" fill="#002147">Hodrick-Prescott, λ = 14400</text>
<text x="4" y="87.4" font-size="5.74" fill="#002147">Hamilton regression, h = 24, p = 12</text>
<text x="4" y="119.49" font-size="5.74" fill="#002147">Baxter-King band pass, 18-96 months</text>
<text x="4" y="151.59" font-size="5.74" fill="#002147">Christiano-Fitzgerald band pass, 18-96 months</text>
<text x="4" y="183.68" font-size="5.74" fill="#002147">First difference</text>
<rect x="87.38" y="59.58" width="26.62" height="15.64" fill="#22201C" fill-opacity="0.055"/>
<rect x="183.08" y="59.58" width="16.02" height="15.64" fill="#22201C" fill-opacity="0.055"/>
<rect x="252.22" y="59.58" width="21.32" height="15.64" fill="#22201C" fill-opacity="0.055"/>
<line x1="30.71" y1="59.58" x2="30.71" y2="75.22" stroke="#E3DFD4" stroke-width="0.32"/>
<line x1="51.97" y1="59.58" x2="51.97" y2="75.22" stroke="#E3DFD4" stroke-width="0.32"/>
<line x1="73.23" y1="59.58" x2="73.23" y2="75.22" stroke="#E3DFD4" stroke-width="0.32"/>
<line x1="94.49" y1="59.58" x2="94.49" y2="75.22" stroke="#E3DFD4" stroke-width="0.32"/>
<line x1="115.81" y1="59.58" x2="115.81" y2="75.22" stroke="#E3DFD4" stroke-width="0.32"/>
<line x1="137.07" y1="59.58" x2="137.07" y2="75.22" stroke="#E3DFD4" stroke-width="0.32"/>
<line x1="158.33" y1="59.58" x2="158.33" y2="75.22" stroke="#E3DFD4" stroke-width="0.32"/>
<line x1="179.59" y1="59.58" x2="179.59" y2="75.22" stroke="#E3DFD4" stroke-width="0.32"/>
<line x1="200.9" y1="59.58" x2="200.9" y2="75.22" stroke="#E3DFD4" stroke-width="0.32"/>
<line x1="222.16" y1="59.58" x2="222.16" y2="75.22" stroke="#E3DFD4" stroke-width="0.32"/>
<line x1="243.42" y1="59.58" x2="243.42" y2="75.22" stroke="#E3DFD4" stroke-width="0.32"/>
<line x1="264.68" y1="59.58" x2="264.68" y2="75.22" stroke="#E3DFD4" stroke-width="0.32"/>
<line x1="286" y1="59.58" x2="286" y2="75.22" stroke="#E3DFD4" stroke-width="0.32"/>
<line x1="307.26" y1="59.58" x2="307.26" y2="75.22" stroke="#E3DFD4" stroke-width="0.32"/>
<line x1="16.35" y1="72.06" x2="332.16" y2="72.06" stroke="#E3DFD4" stroke-width="0.32"/>
<text x="13.35" y="73.82" font-size="5.18" fill="#22201C" text-anchor="end">-20</text>
<line x1="16.35" y1="61.56" x2="332.16" y2="61.56" stroke="#E3DFD4" stroke-width="0.32"/>
<text x="13.35" y="63.32" font-size="5.18" fill="#22201C" text-anchor="end">20</text>
<line x1="16.35" y1="66.81" x2="332.16" y2="66.81" stroke="#6F6B62" stroke-width="0.36"/>
<polygon points="30.71,66.81 30.71,65.97 32.51,65.65 34.15,66.72 35.95,67.95 37.7,67.56 39.5,68.19 41.25,68.25 43.06,66.92 44.86,66.72 46.61,66.27 48.42,66.47 50.16,65.65 51.97,65.08 53.77,65.3 55.41,66.91 57.21,66.53 58.96,65.39 60.76,65.37 62.51,63.97 64.32,64.1 66.12,64.3 67.87,64.53 69.68,64.34 71.42,65.12 73.23,67.48 75.03,67.67 76.67,66.46 78.47,65.76 80.22,64.45 82.02,66.22 83.77,67.76 85.58,69.19 87.38,68.56 89.13,68.4 90.94,70.44 92.68,71.21 94.49,72.07 96.29,71.25 97.98,69.24 99.79,69.64 101.54,70.6 103.34,70.91 105.09,69.7 106.89,70.37 108.7,70.6 110.45,70.63 112.25,67.01 114,66.14 115.81,65.83 117.61,65.12 119.24,65.78 121.05,66.57 122.8,67.11 124.6,66.7 126.35,65.66 128.15,63.71 129.96,63.48 131.71,62.72 133.51,62.79 135.26,62.89 137.07,62.14 138.87,62.48 140.5,63.38 142.31,63.28 144.06,63.48 145.86,63.04 147.61,65.97 149.41,66.9 151.22,66.98 152.97,66.34 154.77,66.52 156.52,67.12 158.33,67.8 160.13,66.34 161.76,65.86 163.57,65.97 165.32,67.86 167.12,68.57 168.87,68.45 170.67,69.63 172.48,69.56 174.23,69.75 176.03,69.47 177.78,68.72 179.59,69.13 181.39,70.91 183.08,73.6 184.89,74.51 186.63,73.86 188.44,71.7 190.19,69.33 191.99,69.09 193.8,68.64 195.55,68.93 197.35,67.92 199.1,65.76 200.9,65.43 202.71,64.16 204.34,62.92 206.15,62.26 207.89,60.29 209.7,61.99 211.45,62.76 213.25,63.23 215.06,63.59 216.8,62.42 218.61,62.89 220.36,63.55 222.16,63.08 223.97,62.79 225.6,62.17 227.41,62.43 229.15,64.61 230.96,65.63 232.71,70.53 234.51,69.08 236.32,69.96 238.06,70.33 239.87,69.04 241.62,68.06 243.42,66.17 245.23,66.42 246.86,66.69 248.67,66.87 250.41,68.65 252.22,68.21 253.97,68 255.77,68.44 257.58,68.72 259.32,69.86 261.13,69.1 262.88,68.47 264.68,68.72 266.49,68.93 268.18,67.81 269.98,65.7 271.73,63.98 273.54,65.31 275.28,66.12 277.09,67.36 278.9,66.65 280.64,65.97 282.45,67.36 284.2,67.93 286,67.83 287.81,66.91 289.44,65.89 291.24,67.56 292.99,66.65 294.8,65.92 296.54,66.02 298.35,66.12 300.15,66.22 301.9,66.32 303.71,66.41 305.46,66.51 307.26,66.61 309.07,66.7 310.7,66.8 312.5,66.9 314.25,66.99 316.06,67.09 317.8,67.18 317.8,66.81" fill="#002147" stroke="none" fill-opacity="0.16"/>
<polyline points="30.71,65.97 32.51,65.65 34.15,66.72 35.95,67.95 37.7,67.56 39.5,68.19 41.25,68.25 43.06,66.92 44.86,66.72 46.61,66.27 48.42,66.47 50.16,65.65 51.97,65.08 53.77,65.3 55.41,66.91 57.21,66.53 58.96,65.39 60.76,65.37 62.51,63.97 64.32,64.1 66.12,64.3 67.87,64.53 69.68,64.34 71.42,65.12 73.23,67.48 75.03,67.67 76.67,66.46 78.47,65.76 80.22,64.45 82.02,66.22 83.77,67.76 85.58,69.19 87.38,68.56 89.13,68.4 90.94,70.44 92.68,71.21 94.49,72.07 96.29,71.25 97.98,69.24 99.79,69.64 101.54,70.6 103.34,70.91 105.09,69.7 106.89,70.37 108.7,70.6 110.45,70.63 112.25,67.01 114,66.14 115.81,65.83 117.61,65.12 119.24,65.78 121.05,66.57 122.8,67.11 124.6,66.7 126.35,65.66 128.15,63.71 129.96,63.48 131.71,62.72 133.51,62.79 135.26,62.89 137.07,62.14 138.87,62.48 140.5,63.38 142.31,63.28 144.06,63.48 145.86,63.04 147.61,65.97 149.41,66.9 151.22,66.98 152.97,66.34 154.77,66.52 156.52,67.12 158.33,67.8 160.13,66.34 161.76,65.86 163.57,65.97 165.32,67.86 167.12,68.57 168.87,68.45 170.67,69.63 172.48,69.56 174.23,69.75 176.03,69.47 177.78,68.72 179.59,69.13 181.39,70.91 183.08,73.6 184.89,74.51 186.63,73.86 188.44,71.7 190.19,69.33 191.99,69.09 193.8,68.64 195.55,68.93 197.35,67.92 199.1,65.76 200.9,65.43 202.71,64.16 204.34,62.92 206.15,62.26 207.89,60.29 209.7,61.99 211.45,62.76 213.25,63.23 215.06,63.59 216.8,62.42 218.61,62.89 220.36,63.55 222.16,63.08 223.97,62.79 225.6,62.17 227.41,62.43 229.15,64.61 230.96,65.63 232.71,70.53 234.51,69.08 236.32,69.96 238.06,70.33 239.87,69.04 241.62,68.06 243.42,66.17 245.23,66.42 246.86,66.69 248.67,66.87 250.41,68.65 252.22,68.21 253.97,68 255.77,68.44 257.58,68.72 259.32,69.86 261.13,69.1 262.88,68.47 264.68,68.72 266.49,68.93 268.18,67.81 269.98,65.7 271.73,63.98 273.54,65.31 275.28,66.12 277.09,67.36 278.9,66.65 280.64,65.97 282.45,67.36 284.2,67.93 286,67.83 287.81,66.91 289.44,65.89 291.24,67.56 292.99,66.65 294.8,65.92 296.54,66.02 298.35,66.12 300.15,66.22 301.9,66.32 303.71,66.41 305.46,66.51 307.26,66.61 309.07,66.7 310.7,66.8 312.5,66.9 314.25,66.99 316.06,67.09 317.8,67.18" fill="none" stroke="#002147" stroke-width="0.6" stroke-linejoin="round" stroke-linecap="round"/>
<rect x="87.38" y="91.68" width="26.62" height="15.64" fill="#22201C" fill-opacity="0.055"/>
<rect x="183.08" y="91.68" width="16.02" height="15.64" fill="#22201C" fill-opacity="0.055"/>
<rect x="252.22" y="91.68" width="21.32" height="15.64" fill="#22201C" fill-opacity="0.055"/>
<line x1="30.71" y1="91.68" x2="30.71" y2="107.31" stroke="#E3DFD4" stroke-width="0.32"/>
<line x1="51.97" y1="91.68" x2="51.97" y2="107.31" stroke="#E3DFD4" stroke-width="0.32"/>
<line x1="73.23" y1="91.68" x2="73.23" y2="107.31" stroke="#E3DFD4" stroke-width="0.32"/>
<line x1="94.49" y1="91.68" x2="94.49" y2="107.31" stroke="#E3DFD4" stroke-width="0.32"/>
<line x1="115.81" y1="91.68" x2="115.81" y2="107.31" stroke="#E3DFD4" stroke-width="0.32"/>
<line x1="137.07" y1="91.68" x2="137.07" y2="107.31" stroke="#E3DFD4" stroke-width="0.32"/>
<line x1="158.33" y1="91.68" x2="158.33" y2="107.31" stroke="#E3DFD4" stroke-width="0.32"/>
<line x1="179.59" y1="91.68" x2="179.59" y2="107.31" stroke="#E3DFD4" stroke-width="0.32"/>
<line x1="200.9" y1="91.68" x2="200.9" y2="107.31" stroke="#E3DFD4" stroke-width="0.32"/>
<line x1="222.16" y1="91.68" x2="222.16" y2="107.31" stroke="#E3DFD4" stroke-width="0.32"/>
<line x1="243.42" y1="91.68" x2="243.42" y2="107.31" stroke="#E3DFD4" stroke-width="0.32"/>
<line x1="264.68" y1="91.68" x2="264.68" y2="107.31" stroke="#E3DFD4" stroke-width="0.32"/>
<line x1="286" y1="91.68" x2="286" y2="107.31" stroke="#E3DFD4" stroke-width="0.32"/>
<line x1="307.26" y1="91.68" x2="307.26" y2="107.31" stroke="#E3DFD4" stroke-width="0.32"/>
<line x1="16.35" y1="105.27" x2="332.16" y2="105.27" stroke="#E3DFD4" stroke-width="0.32"/>
<text x="13.35" y="107.03" font-size="5.18" fill="#22201C" text-anchor="end">-50</text>
<line x1="16.35" y1="98.31" x2="332.16" y2="98.31" stroke="#E3DFD4" stroke-width="0.32"/>
<text x="13.35" y="100.08" font-size="5.18" fill="#22201C" text-anchor="end">0</text>
<line x1="16.35" y1="98.31" x2="332.16" y2="98.31" stroke="#6F6B62" stroke-width="0.36"/>
<polygon points="92.68,98.31 92.68,105.88 94.49,106.6 96.29,105.91 97.98,103.79 99.79,104.66 101.54,105 103.34,104.39 105.09,104.79 106.89,104.79 108.7,104.89 110.45,104.53 112.25,102.74 114,101.98 115.81,101.47 117.61,100.64 119.24,100.9 121.05,101.48 122.8,101.76 124.6,101.4 126.35,100.5 128.15,99.08 129.96,98.93 131.71,98.4 133.51,98.08 135.26,97.43 137.07,96.29 138.87,96.89 140.5,97.69 142.31,98.15 144.06,97.72 145.86,97.37 147.61,98.33 149.41,98.34 151.22,99.18 152.97,98.26 154.77,99.17 156.52,98.46 158.33,98.78 160.13,99.3 161.76,98.57 163.57,98.01 165.32,98.62 167.12,99.74 168.87,99.49 170.67,100.58 172.48,99.36 174.23,100.94 176.03,100.91 177.78,100.26 179.59,101.07 181.39,101.6 183.08,102.52 184.89,102.84 186.63,102.15 188.44,100.87 190.19,99.35 191.99,99.3 193.8,99.25 195.55,99.26 197.35,98.23 199.1,97.42 200.9,97.08 202.71,96.34 204.34,95.49 206.15,94.71 207.89,94.08 209.7,94.02 211.45,93.94 213.25,93.39 215.06,94.14 216.8,93.51 218.61,93.65 220.36,93.53 222.16,93.55 223.97,93.08 225.6,92.71 227.41,92.39 229.15,93.32 230.96,94.72 232.71,97.35 234.51,96.56 236.32,97.21 238.06,97.2 239.87,97.17 241.62,97.38 243.42,96.14 245.23,95.95 246.86,95.91 248.67,95.68 250.41,97.46 252.22,97.41 253.97,97.4 255.77,97.95 257.58,97.55 259.32,98.4 261.13,98.65 262.88,98.09 264.68,98.77 266.49,99.21 268.18,98.41 269.98,98.51 271.73,96.53 273.54,97.09 275.28,96.02 277.09,97.43 278.9,96.94 280.64,96.5 282.45,97.62 284.2,98.18 286,98.28 287.81,97.88 289.44,97.89 291.24,97.91 292.99,97.68 294.8,95.31 296.54,96.09 298.35,95.59 300.15,95.25 301.9,95.36 303.71,95.58 305.46,96.43 307.26,96.26 309.07,96.27 310.7,97.13 312.5,96.6 314.25,96.9 316.06,96.62 317.8,96.64 317.8,98.31" fill="#8C2F27" stroke="none" fill-opacity="0.16"/>
<polyline points="92.68,105.88 94.49,106.6 96.29,105.91 97.98,103.79 99.79,104.66 101.54,105 103.34,104.39 105.09,104.79 106.89,104.79 108.7,104.89 110.45,104.53 112.25,102.74 114,101.98 115.81,101.47 117.61,100.64 119.24,100.9 121.05,101.48 122.8,101.76 124.6,101.4 126.35,100.5 128.15,99.08 129.96,98.93 131.71,98.4 133.51,98.08 135.26,97.43 137.07,96.29 138.87,96.89 140.5,97.69 142.31,98.15 144.06,97.72 145.86,97.37 147.61,98.33 149.41,98.34 151.22,99.18 152.97,98.26 154.77,99.17 156.52,98.46 158.33,98.78 160.13,99.3 161.76,98.57 163.57,98.01 165.32,98.62 167.12,99.74 168.87,99.49 170.67,100.58 172.48,99.36 174.23,100.94 176.03,100.91 177.78,100.26 179.59,101.07 181.39,101.6 183.08,102.52 184.89,102.84 186.63,102.15 188.44,100.87 190.19,99.35 191.99,99.3 193.8,99.25 195.55,99.26 197.35,98.23 199.1,97.42 200.9,97.08 202.71,96.34 204.34,95.49 206.15,94.71 207.89,94.08 209.7,94.02 211.45,93.94 213.25,93.39 215.06,94.14 216.8,93.51 218.61,93.65 220.36,93.53 222.16,93.55 223.97,93.08 225.6,92.71 227.41,92.39 229.15,93.32 230.96,94.72 232.71,97.35 234.51,96.56 236.32,97.21 238.06,97.2 239.87,97.17 241.62,97.38 243.42,96.14 245.23,95.95 246.86,95.91 248.67,95.68 250.41,97.46 252.22,97.41 253.97,97.4 255.77,97.95 257.58,97.55 259.32,98.4 261.13,98.65 262.88,98.09 264.68,98.77 266.49,99.21 268.18,98.41 269.98,98.51 271.73,96.53 273.54,97.09 275.28,96.02 277.09,97.43 278.9,96.94 280.64,96.5 282.45,97.62 284.2,98.18 286,98.28 287.81,97.88 289.44,97.89 291.24,97.91 292.99,97.68 294.8,95.31 296.54,96.09 298.35,95.59 300.15,95.25 301.9,95.36 303.71,95.58 305.46,96.43 307.26,96.26 309.07,96.27 310.7,97.13 312.5,96.6 314.25,96.9 316.06,96.62 317.8,96.64" fill="none" stroke="#8C2F27" stroke-width="0.6" stroke-linejoin="round" stroke-linecap="round"/>
<rect x="87.38" y="123.77" width="26.62" height="15.64" fill="#22201C" fill-opacity="0.055"/>
<rect x="183.08" y="123.77" width="16.02" height="15.64" fill="#22201C" fill-opacity="0.055"/>
<rect x="252.22" y="123.77" width="21.32" height="15.64" fill="#22201C" fill-opacity="0.055"/>
<line x1="30.71" y1="123.77" x2="30.71" y2="139.41" stroke="#E3DFD4" stroke-width="0.32"/>
<line x1="51.97" y1="123.77" x2="51.97" y2="139.41" stroke="#E3DFD4" stroke-width="0.32"/>
<line x1="73.23" y1="123.77" x2="73.23" y2="139.41" stroke="#E3DFD4" stroke-width="0.32"/>
<line x1="94.49" y1="123.77" x2="94.49" y2="139.41" stroke="#E3DFD4" stroke-width="0.32"/>
<line x1="115.81" y1="123.77" x2="115.81" y2="139.41" stroke="#E3DFD4" stroke-width="0.32"/>
<line x1="137.07" y1="123.77" x2="137.07" y2="139.41" stroke="#E3DFD4" stroke-width="0.32"/>
<line x1="158.33" y1="123.77" x2="158.33" y2="139.41" stroke="#E3DFD4" stroke-width="0.32"/>
<line x1="179.59" y1="123.77" x2="179.59" y2="139.41" stroke="#E3DFD4" stroke-width="0.32"/>
<line x1="200.9" y1="123.77" x2="200.9" y2="139.41" stroke="#E3DFD4" stroke-width="0.32"/>
<line x1="222.16" y1="123.77" x2="222.16" y2="139.41" stroke="#E3DFD4" stroke-width="0.32"/>
<line x1="243.42" y1="123.77" x2="243.42" y2="139.41" stroke="#E3DFD4" stroke-width="0.32"/>
<line x1="264.68" y1="123.77" x2="264.68" y2="139.41" stroke="#E3DFD4" stroke-width="0.32"/>
<line x1="286" y1="123.77" x2="286" y2="139.41" stroke="#E3DFD4" stroke-width="0.32"/>
<line x1="307.26" y1="123.77" x2="307.26" y2="139.41" stroke="#E3DFD4" stroke-width="0.32"/>
<line x1="16.35" y1="137.8" x2="332.16" y2="137.8" stroke="#E3DFD4" stroke-width="0.32"/>
<text x="13.35" y="139.56" font-size="5.18" fill="#22201C" text-anchor="end">-20</text>
<line x1="16.35" y1="131.89" x2="332.16" y2="131.89" stroke="#E3DFD4" stroke-width="0.32"/>
<text x="13.35" y="133.65" font-size="5.18" fill="#22201C" text-anchor="end">0</text>
<line x1="16.35" y1="125.98" x2="332.16" y2="125.98" stroke="#E3DFD4" stroke-width="0.32"/>
<text x="13.35" y="127.74" font-size="5.18" fill="#22201C" text-anchor="end">20</text>
<line x1="16.35" y1="131.89" x2="332.16" y2="131.89" stroke="#6F6B62" stroke-width="0.36"/>
<polygon points="94.49,131.89 94.49,138.43 96.29,138.62 97.98,138.7 99.79,138.68 101.54,138.54 103.34,138.29 105.09,137.94 106.89,137.48 108.7,136.92 110.45,136.29 112.25,135.59 114,134.85 115.81,134.09 117.61,133.3 119.24,132.5 121.05,131.7 122.8,130.91 124.6,130.16 126.35,129.49 128.15,128.91 129.96,128.45 131.71,128.11 133.51,127.9 135.26,127.84 137.07,127.91 138.87,128.1 140.5,128.4 142.31,128.77 144.06,129.23 145.86,129.73 147.61,130.25 149.41,130.75 151.22,131.23 152.97,131.65 154.77,132.03 156.52,132.37 158.33,132.68 160.13,132.96 161.76,133.26 163.57,133.59 165.32,133.97 167.12,134.41 168.87,134.89 170.67,135.42 172.48,135.97 174.23,136.52 176.03,137.06 177.78,137.55 179.59,137.97 181.39,138.3 183.08,138.49 184.89,138.51 186.63,138.32 188.44,137.91 190.19,137.26 191.99,136.39 193.8,135.32 195.55,134.09 197.35,132.74 199.1,131.35 200.9,129.95 202.71,128.61 204.34,127.39 206.15,126.34 207.89,125.51 209.7,124.92 211.45,124.58 213.25,124.48 215.06,124.61 216.8,124.93 218.61,125.41 220.36,126.01 222.16,126.7 223.97,127.43 225.6,128.18 227.41,128.91 229.15,129.61 230.96,130.26 232.71,130.84 234.51,131.34 236.32,131.77 238.06,132.13 239.87,132.42 241.62,132.67 243.42,132.88 245.23,133.06 246.86,133.22 248.67,133.35 250.41,133.45 252.22,133.51 253.97,133.53 253.97,131.89" fill="#3F6B52" stroke="none" fill-opacity="0.16"/>
<polyline points="94.49,138.43 96.29,138.62 97.98,138.7 99.79,138.68 101.54,138.54 103.34,138.29 105.09,137.94 106.89,137.48 108.7,136.92 110.45,136.29 112.25,135.59 114,134.85 115.81,134.09 117.61,133.3 119.24,132.5 121.05,131.7 122.8,130.91 124.6,130.16 126.35,129.49 128.15,128.91 129.96,128.45 131.71,128.11 133.51,127.9 135.26,127.84 137.07,127.91 138.87,128.1 140.5,128.4 142.31,128.77 144.06,129.23 145.86,129.73 147.61,130.25 149.41,130.75 151.22,131.23 152.97,131.65 154.77,132.03 156.52,132.37 158.33,132.68 160.13,132.96 161.76,133.26 163.57,133.59 165.32,133.97 167.12,134.41 168.87,134.89 170.67,135.42 172.48,135.97 174.23,136.52 176.03,137.06 177.78,137.55 179.59,137.97 181.39,138.3 183.08,138.49 184.89,138.51 186.63,138.32 188.44,137.91 190.19,137.26 191.99,136.39 193.8,135.32 195.55,134.09 197.35,132.74 199.1,131.35 200.9,129.95 202.71,128.61 204.34,127.39 206.15,126.34 207.89,125.51 209.7,124.92 211.45,124.58 213.25,124.48 215.06,124.61 216.8,124.93 218.61,125.41 220.36,126.01 222.16,126.7 223.97,127.43 225.6,128.18 227.41,128.91 229.15,129.61 230.96,130.26 232.71,130.84 234.51,131.34 236.32,131.77 238.06,132.13 239.87,132.42 241.62,132.67 243.42,132.88 245.23,133.06 246.86,133.22 248.67,133.35 250.41,133.45 252.22,133.51 253.97,133.53" fill="none" stroke="#3F6B52" stroke-width="0.6" stroke-linejoin="round" stroke-linecap="round"/>
<rect x="87.38" y="155.87" width="26.62" height="15.64" fill="#22201C" fill-opacity="0.055"/>
<rect x="183.08" y="155.87" width="16.02" height="15.64" fill="#22201C" fill-opacity="0.055"/>
<rect x="252.22" y="155.87" width="21.32" height="15.64" fill="#22201C" fill-opacity="0.055"/>
<line x1="30.71" y1="155.87" x2="30.71" y2="171.5" stroke="#E3DFD4" stroke-width="0.32"/>
<line x1="51.97" y1="155.87" x2="51.97" y2="171.5" stroke="#E3DFD4" stroke-width="0.32"/>
<line x1="73.23" y1="155.87" x2="73.23" y2="171.5" stroke="#E3DFD4" stroke-width="0.32"/>
<line x1="94.49" y1="155.87" x2="94.49" y2="171.5" stroke="#E3DFD4" stroke-width="0.32"/>
<line x1="115.81" y1="155.87" x2="115.81" y2="171.5" stroke="#E3DFD4" stroke-width="0.32"/>
<line x1="137.07" y1="155.87" x2="137.07" y2="171.5" stroke="#E3DFD4" stroke-width="0.32"/>
<line x1="158.33" y1="155.87" x2="158.33" y2="171.5" stroke="#E3DFD4" stroke-width="0.32"/>
<line x1="179.59" y1="155.87" x2="179.59" y2="171.5" stroke="#E3DFD4" stroke-width="0.32"/>
<line x1="200.9" y1="155.87" x2="200.9" y2="171.5" stroke="#E3DFD4" stroke-width="0.32"/>
<line x1="222.16" y1="155.87" x2="222.16" y2="171.5" stroke="#E3DFD4" stroke-width="0.32"/>
<line x1="243.42" y1="155.87" x2="243.42" y2="171.5" stroke="#E3DFD4" stroke-width="0.32"/>
<line x1="264.68" y1="155.87" x2="264.68" y2="171.5" stroke="#E3DFD4" stroke-width="0.32"/>
<line x1="286" y1="155.87" x2="286" y2="171.5" stroke="#E3DFD4" stroke-width="0.32"/>
<line x1="307.26" y1="155.87" x2="307.26" y2="171.5" stroke="#E3DFD4" stroke-width="0.32"/>
<line x1="16.35" y1="170.35" x2="332.16" y2="170.35" stroke="#E3DFD4" stroke-width="0.32"/>
<text x="13.35" y="172.11" font-size="5.18" fill="#22201C" text-anchor="end">-20</text>
<line x1="16.35" y1="163.86" x2="332.16" y2="163.86" stroke="#E3DFD4" stroke-width="0.32"/>
<text x="13.35" y="165.62" font-size="5.18" fill="#22201C" text-anchor="end">0</text>
<line x1="16.35" y1="157.38" x2="332.16" y2="157.38" stroke="#E3DFD4" stroke-width="0.32"/>
<text x="13.35" y="159.14" font-size="5.18" fill="#22201C" text-anchor="end">20</text>
<line x1="16.35" y1="163.86" x2="332.16" y2="163.86" stroke="#6F6B62" stroke-width="0.36"/>
<polygon points="30.71,163.86 30.71,162.05 32.51,162.18 34.15,162.33 35.95,162.5 37.7,162.68 39.5,162.84 41.25,162.99 43.06,163.1 44.86,163.16 46.61,163.17 48.42,163.12 50.16,163.01 51.97,162.84 53.77,162.64 55.41,162.4 57.21,162.15 58.96,161.92 60.76,161.71 62.51,161.56 64.32,161.49 66.12,161.5 67.87,161.63 69.68,161.86 71.42,162.2 73.23,162.66 75.03,163.21 76.67,163.84 78.47,164.53 80.22,165.25 82.02,165.99 83.77,166.71 85.58,167.39 87.38,168 89.13,168.54 90.94,168.99 92.68,169.33 94.49,169.56 96.29,169.68 97.98,169.69 99.79,169.59 101.54,169.38 103.34,169.08 105.09,168.68 106.89,168.2 108.7,167.63 110.45,166.98 112.25,166.27 114,165.49 115.81,164.66 117.61,163.8 119.24,162.91 121.05,162.03 122.8,161.17 124.6,160.36 126.35,159.62 128.15,158.97 129.96,158.45 131.71,158.06 133.51,157.83 135.26,157.75 137.07,157.82 138.87,158.03 140.5,158.38 142.31,158.82 144.06,159.35 145.86,159.92 147.61,160.52 149.41,161.11 151.22,161.68 152.97,162.21 154.77,162.69 156.52,163.13 158.33,163.53 160.13,163.9 161.76,164.28 163.57,164.67 165.32,165.1 167.12,165.58 168.87,166.12 170.67,166.72 172.48,167.38 174.23,168.06 176.03,168.75 177.78,169.4 179.59,169.97 181.39,170.42 183.08,170.71 184.89,170.79 186.63,170.64 188.44,170.25 190.19,169.6 191.99,168.71 193.8,167.61 195.55,166.34 197.35,164.95 199.1,163.5 200.9,162.06 202.71,160.69 204.34,159.45 206.15,158.39 207.89,157.55 209.7,156.96 211.45,156.64 213.25,156.58 215.06,156.76 216.8,157.15 218.61,157.73 220.36,158.44 222.16,159.24 223.97,160.09 225.6,160.94 227.41,161.76 229.15,162.52 230.96,163.21 232.71,163.82 234.51,164.35 236.32,164.79 238.06,165.16 239.87,165.47 241.62,165.73 243.42,165.96 245.23,166.15 246.86,166.31 248.67,166.45 250.41,166.57 252.22,166.65 253.97,166.69 255.77,166.7 257.58,166.65 259.32,166.56 261.13,166.42 262.88,166.23 264.68,166.01 266.49,165.76 268.18,165.5 269.98,165.23 271.73,164.98 273.54,164.75 275.28,164.55 277.09,164.39 278.9,164.26 280.64,164.16 282.45,164.1 284.2,164.05 286,164.02 287.81,163.98 289.44,163.94 291.24,163.88 292.99,163.8 294.8,163.71 296.54,163.59 298.35,163.46 300.15,163.32 301.9,163.18 303.71,163.06 305.46,162.95 307.26,162.88 309.07,162.84 310.7,162.84 312.5,162.87 314.25,162.93 316.06,163.01 317.8,163.11 317.8,163.86" fill="#8A6A18" stroke="none" fill-opacity="0.16"/>
<polyline points="30.71,162.05 32.51,162.18 34.15,162.33 35.95,162.5 37.7,162.68 39.5,162.84 41.25,162.99 43.06,163.1 44.86,163.16 46.61,163.17 48.42,163.12 50.16,163.01 51.97,162.84 53.77,162.64 55.41,162.4 57.21,162.15 58.96,161.92 60.76,161.71 62.51,161.56 64.32,161.49 66.12,161.5 67.87,161.63 69.68,161.86 71.42,162.2 73.23,162.66 75.03,163.21 76.67,163.84 78.47,164.53 80.22,165.25 82.02,165.99 83.77,166.71 85.58,167.39 87.38,168 89.13,168.54 90.94,168.99 92.68,169.33 94.49,169.56 96.29,169.68 97.98,169.69 99.79,169.59 101.54,169.38 103.34,169.08 105.09,168.68 106.89,168.2 108.7,167.63 110.45,166.98 112.25,166.27 114,165.49 115.81,164.66 117.61,163.8 119.24,162.91 121.05,162.03 122.8,161.17 124.6,160.36 126.35,159.62 128.15,158.97 129.96,158.45 131.71,158.06 133.51,157.83 135.26,157.75 137.07,157.82 138.87,158.03 140.5,158.38 142.31,158.82 144.06,159.35 145.86,159.92 147.61,160.52 149.41,161.11 151.22,161.68 152.97,162.21 154.77,162.69 156.52,163.13 158.33,163.53 160.13,163.9 161.76,164.28 163.57,164.67 165.32,165.1 167.12,165.58 168.87,166.12 170.67,166.72 172.48,167.38 174.23,168.06 176.03,168.75 177.78,169.4 179.59,169.97 181.39,170.42 183.08,170.71 184.89,170.79 186.63,170.64 188.44,170.25 190.19,169.6 191.99,168.71 193.8,167.61 195.55,166.34 197.35,164.95 199.1,163.5 200.9,162.06 202.71,160.69 204.34,159.45 206.15,158.39 207.89,157.55 209.7,156.96 211.45,156.64 213.25,156.58 215.06,156.76 216.8,157.15 218.61,157.73 220.36,158.44 222.16,159.24 223.97,160.09 225.6,160.94 227.41,161.76 229.15,162.52 230.96,163.21 232.71,163.82 234.51,164.35 236.32,164.79 238.06,165.16 239.87,165.47 241.62,165.73 243.42,165.96 245.23,166.15 246.86,166.31 248.67,166.45 250.41,166.57 252.22,166.65 253.97,166.69 255.77,166.7 257.58,166.65 259.32,166.56 261.13,166.42 262.88,166.23 264.68,166.01 266.49,165.76 268.18,165.5 269.98,165.23 271.73,164.98 273.54,164.75 275.28,164.55 277.09,164.39 278.9,164.26 280.64,164.16 282.45,164.1 284.2,164.05 286,164.02 287.81,163.98 289.44,163.94 291.24,163.88 292.99,163.8 294.8,163.71 296.54,163.59 298.35,163.46 300.15,163.32 301.9,163.18 303.71,163.06 305.46,162.95 307.26,162.88 309.07,162.84 310.7,162.84 312.5,162.87 314.25,162.93 316.06,163.01 317.8,163.11" fill="none" stroke="#8A6A18" stroke-width="0.6" stroke-linejoin="round" stroke-linecap="round"/>
<rect x="87.38" y="187.96" width="26.62" height="15.64" fill="#22201C" fill-opacity="0.055"/>
<rect x="183.08" y="187.96" width="16.02" height="15.64" fill="#22201C" fill-opacity="0.055"/>
<rect x="252.22" y="187.96" width="21.32" height="15.64" fill="#22201C" fill-opacity="0.055"/>
<line x1="30.71" y1="187.96" x2="30.71" y2="203.6" stroke="#E3DFD4" stroke-width="0.32"/>
<text x="30.71" y="210.64" font-size="5.18" fill="#22201C" text-anchor="middle">2013</text>
<line x1="51.97" y1="187.96" x2="51.97" y2="203.6" stroke="#E3DFD4" stroke-width="0.32"/>
<text x="51.97" y="210.64" font-size="5.18" fill="#22201C" text-anchor="middle">2014</text>
<line x1="73.23" y1="187.96" x2="73.23" y2="203.6" stroke="#E3DFD4" stroke-width="0.32"/>
<text x="73.23" y="210.64" font-size="5.18" fill="#22201C" text-anchor="middle">2015</text>
<line x1="94.49" y1="187.96" x2="94.49" y2="203.6" stroke="#E3DFD4" stroke-width="0.32"/>
<text x="94.49" y="210.64" font-size="5.18" fill="#22201C" text-anchor="middle">2016</text>
<line x1="115.81" y1="187.96" x2="115.81" y2="203.6" stroke="#E3DFD4" stroke-width="0.32"/>
<text x="115.81" y="210.64" font-size="5.18" fill="#22201C" text-anchor="middle">2017</text>
<line x1="137.07" y1="187.96" x2="137.07" y2="203.6" stroke="#E3DFD4" stroke-width="0.32"/>
<text x="137.07" y="210.64" font-size="5.18" fill="#22201C" text-anchor="middle">2018</text>
<line x1="158.33" y1="187.96" x2="158.33" y2="203.6" stroke="#E3DFD4" stroke-width="0.32"/>
<text x="158.33" y="210.64" font-size="5.18" fill="#22201C" text-anchor="middle">2019</text>
<line x1="179.59" y1="187.96" x2="179.59" y2="203.6" stroke="#E3DFD4" stroke-width="0.32"/>
<text x="179.59" y="210.64" font-size="5.18" fill="#22201C" text-anchor="middle">2020</text>
<line x1="200.9" y1="187.96" x2="200.9" y2="203.6" stroke="#E3DFD4" stroke-width="0.32"/>
<text x="200.9" y="210.64" font-size="5.18" fill="#22201C" text-anchor="middle">2021</text>
<line x1="222.16" y1="187.96" x2="222.16" y2="203.6" stroke="#E3DFD4" stroke-width="0.32"/>
<text x="222.16" y="210.64" font-size="5.18" fill="#22201C" text-anchor="middle">2022</text>
<line x1="243.42" y1="187.96" x2="243.42" y2="203.6" stroke="#E3DFD4" stroke-width="0.32"/>
<text x="243.42" y="210.64" font-size="5.18" fill="#22201C" text-anchor="middle">2023</text>
<line x1="264.68" y1="187.96" x2="264.68" y2="203.6" stroke="#E3DFD4" stroke-width="0.32"/>
<text x="264.68" y="210.64" font-size="5.18" fill="#22201C" text-anchor="middle">2024</text>
<line x1="286" y1="187.96" x2="286" y2="203.6" stroke="#E3DFD4" stroke-width="0.32"/>
<text x="286" y="210.64" font-size="5.18" fill="#22201C" text-anchor="middle">2025</text>
<line x1="307.26" y1="187.96" x2="307.26" y2="203.6" stroke="#E3DFD4" stroke-width="0.32"/>
<text x="307.26" y="210.64" font-size="5.18" fill="#22201C" text-anchor="middle">2026</text>
<line x1="16.35" y1="203.59" x2="332.16" y2="203.59" stroke="#E3DFD4" stroke-width="0.32"/>
<text x="13.35" y="205.35" font-size="5.18" fill="#22201C" text-anchor="end">-20</text>
<line x1="16.35" y1="194.86" x2="332.16" y2="194.86" stroke="#E3DFD4" stroke-width="0.32"/>
<text x="13.35" y="196.62" font-size="5.18" fill="#22201C" text-anchor="end">0</text>
<line x1="16.35" y1="194.86" x2="332.16" y2="194.86" stroke="#6F6B62" stroke-width="0.36"/>
<polygon points="32.51,194.86 32.51,194.82 34.15,197.13 35.95,197.39 37.7,194.69 39.5,196.38 41.25,195.45 43.06,193.12 44.86,195.02 46.61,194.59 48.42,195.67 50.16,193.98 51.97,194.4 53.77,195.72 55.41,198.02 57.21,194.7 58.96,193.46 60.76,195.3 62.51,193.02 64.32,195.55 66.12,195.67 67.87,195.72 69.68,195.02 71.42,196.63 73.23,199.24 75.03,195.62 76.67,193.28 78.47,194.11 80.22,193.07 82.02,198.19 83.77,197.77 85.58,197.58 87.38,194.1 89.13,194.87 90.94,198.49 92.68,196.35 94.49,196.46 96.29,193.64 97.98,191.61 99.79,195.58 101.54,196.48 103.34,195.35 105.09,192.81 106.89,195.89 108.7,195.13 110.45,194.77 112.25,188.67 114,193.21 115.81,194.14 117.61,193.47 119.24,195.72 121.05,195.93 122.8,195.51 124.6,193.93 126.35,192.88 128.15,191.35 129.96,194.25 131.71,193.35 133.51,194.74 135.26,194.81 137.07,193.4 138.87,195.23 140.5,196.17 142.31,194.52 144.06,195.02 145.86,193.97 147.61,199.59 149.41,196.28 151.22,194.86 152.97,193.66 154.77,195.02 156.52,195.72 158.33,195.85 160.13,192.28 161.76,193.9 163.57,194.86 165.32,197.81 167.12,195.85 168.87,194.42 170.67,196.6 172.48,194.48 174.23,194.87 176.03,194.09 177.78,193.27 179.59,195.19 181.39,197.42 183.08,198.92 184.89,195.92 186.63,193.31 188.44,190.76 190.19,190.4 191.99,193.94 193.8,193.56 195.55,194.8 197.35,192.61 199.1,190.71 200.9,193.75 202.71,192.21 204.34,192.27 206.15,193.25 207.89,191.08 209.7,197.22 211.45,195.68 213.25,195.23 215.06,195.07 216.8,192.56 218.61,195.31 220.36,195.66 222.16,193.81 223.97,194.14 225.6,193.61 227.41,195.1 229.15,198.34 230.96,196.41 232.71,202.89 234.51,192.35 236.32,196.22 238.06,195.4 239.87,192.64 241.62,193.15 243.42,191.66 245.23,195.2 246.86,195.25 248.67,195.09 250.41,197.76 252.22,194.05 253.97,194.44 255.77,195.53 257.58,195.23 259.32,196.66 261.13,193.51 262.88,193.71 264.68,195.15 266.49,195.1 268.18,192.86 269.98,191.23 271.73,191.86 273.54,196.93 275.28,196.06 277.09,196.78 278.9,193.53 280.64,193.58 282.45,197.01 284.2,195.66 286,194.53 287.81,193.17 289.44,193 291.24,197.46 292.99,193.18 294.8,193.49 296.54,194.86 298.35,194.86 300.15,194.86 301.9,194.86 303.71,194.86 305.46,194.86 307.26,194.86 309.07,194.86 310.7,194.86 312.5,194.86 314.25,194.86 316.06,194.86 317.8,194.86 317.8,194.86" fill="#5B3A6B" stroke="none" fill-opacity="0.16"/>
<polyline points="32.51,194.82 34.15,197.13 35.95,197.39 37.7,194.69 39.5,196.38 41.25,195.45 43.06,193.12 44.86,195.02 46.61,194.59 48.42,195.67 50.16,193.98 51.97,194.4 53.77,195.72 55.41,198.02 57.21,194.7 58.96,193.46 60.76,195.3 62.51,193.02 64.32,195.55 66.12,195.67 67.87,195.72 69.68,195.02 71.42,196.63 73.23,199.24 75.03,195.62 76.67,193.28 78.47,194.11 80.22,193.07 82.02,198.19 83.77,197.77 85.58,197.58 87.38,194.1 89.13,194.87 90.94,198.49 92.68,196.35 94.49,196.46 96.29,193.64 97.98,191.61 99.79,195.58 101.54,196.48 103.34,195.35 105.09,192.81 106.89,195.89 108.7,195.13 110.45,194.77 112.25,188.67 114,193.21 115.81,194.14 117.61,193.47 119.24,195.72 121.05,195.93 122.8,195.51 124.6,193.93 126.35,192.88 128.15,191.35 129.96,194.25 131.71,193.35 133.51,194.74 135.26,194.81 137.07,193.4 138.87,195.23 140.5,196.17 142.31,194.52 144.06,195.02 145.86,193.97 147.61,199.59 149.41,196.28 151.22,194.86 152.97,193.66 154.77,195.02 156.52,195.72 158.33,195.85 160.13,192.28 161.76,193.9 163.57,194.86 165.32,197.81 167.12,195.85 168.87,194.42 170.67,196.6 172.48,194.48 174.23,194.87 176.03,194.09 177.78,193.27 179.59,195.19 181.39,197.42 183.08,198.92 184.89,195.92 186.63,193.31 188.44,190.76 190.19,190.4 191.99,193.94 193.8,193.56 195.55,194.8 197.35,192.61 199.1,190.71 200.9,193.75 202.71,192.21 204.34,192.27 206.15,193.25 207.89,191.08 209.7,197.22 211.45,195.68 213.25,195.23 215.06,195.07 216.8,192.56 218.61,195.31 220.36,195.66 222.16,193.81 223.97,194.14 225.6,193.61 227.41,195.1 229.15,198.34 230.96,196.41 232.71,202.89 234.51,192.35 236.32,196.22 238.06,195.4 239.87,192.64 241.62,193.15 243.42,191.66 245.23,195.2 246.86,195.25 248.67,195.09 250.41,197.76 252.22,194.05 253.97,194.44 255.77,195.53 257.58,195.23 259.32,196.66 261.13,193.51 262.88,193.71 264.68,195.15 266.49,195.1 268.18,192.86 269.98,191.23 271.73,191.86 273.54,196.93 275.28,196.06 277.09,196.78 278.9,193.53 280.64,193.58 282.45,197.01 284.2,195.66 286,194.53 287.81,193.17 289.44,193 291.24,197.46 292.99,193.18 294.8,193.49 296.54,194.86 298.35,194.86 300.15,194.86 301.9,194.86 303.71,194.86 305.46,194.86 307.26,194.86 309.07,194.86 310.7,194.86 312.5,194.86 314.25,194.86 316.06,194.86 317.8,194.86" fill="none" stroke="#5B3A6B" stroke-width="0.6" stroke-linejoin="round" stroke-linecap="round"/>
</g>
</svg>
